<svg xmlns="http://www.w3.org/2000/svg" viewBox="0 0 52 52" width="69.333" height="69.333" fill="#666"><path d="M26 0C11.664 0 0 11.663 0 26s11.664 26 26 26 26-11.663 26-26S40.336 0 26 0zm0 50C12.767 50 2 39.233 2 26S12.767 2 26 2s24 10.767 24 24-10.767 24-24 24zm9.707-33.707a1 1 0 0 0-1.414 0L26 24.586l-8.293-8.293a1 1 0 0 0-1.414 1.414L24.586 26l-8.293 8.293a1 1 0 0 0 0 1.414c.195.195.45.293.707.293s.512-.098.707-.293L26 27.414l8.293 8.293c.195.195.45.293.707.293s.512-.098.707-.293a1 1 0 0 0 0-1.414L27.414 26l8.293-8.293a1 1 0 0 0 0-1.414z"/></svg>