<svg xmlns="http://www.w3.org/2000/svg" viewBox="0 0 1365.333 1365.333" width="1820.444" height="1820.444"><g fill="#d41c3b"><path d="M932.316 1050.806H432.964c-13.583 0-25.448-9.34-28.876-22.754l-78.195-305.13c-3.024-11.8 1.164-24.3 10.636-31.753a29.41 29.41 0 0 1 32.84-2.453l137.422 78.546 150.696-240.226c5.486-8.744 14.966-14.035 25.146-14.035s19.667 5.29 25.147 14.035l150.7 240.23L995.9 688.72c10.44-5.967 23.365-5.006 32.84 2.453s13.657 19.955 10.635 31.753l-78.2 305.154c-3.43 13.386-15.296 22.753-28.876 22.753v-.027h.006zM456.013 989.99h453.24l54.64-213.2-100.787 57.607c-13.79 7.888-31.23 3.46-39.752-10.144L682.64 599.907l-140.72 224.33c-8.517 13.58-25.953 18.033-39.752 10.143l-100.8-57.606 54.645 213.215z"/><ellipse vector-effect="non-scaling-stroke" cx="1190.016" cy="516.249" rx="92.524" ry="94.268"/></g><path d="M1190.032 391.56c-67.467 0-122.368 55.933-122.368 124.68 0 2.81.13 5.56.304 8.352l-165.054 87.63-131.246-209.227c20.66-22.333 33.364-52.39 33.364-85.45 0-68.746-54.898-124.674-122.368-124.674S560.296 248.8 560.296 317.545c0 33.043 12.704 63.098 33.36 85.45L447.7 635.684c-8.883 14.155-4.816 32.955 9.1 42s32.347 4.907 41.22-9.247l145.907-232.6c.41.14.836.258 1.25.396l2.392.758 2.57.746 3.076.832.806.192c9.2 2.258 18.794 3.5 28.667 3.5 9.662-.006 19.29-1.178 28.67-3.5.267-.07.547-.126.816-.192l3.076-.832 2.57-.746 3.637-1.154 145.9 232.6c5.66 9.027 15.277 14.04 25.17 14.04 4.803-.003 9.532-1.186 13.77-3.445l180.586-95.867c21.754 34.702 59.858 57.778 103.18 57.778 67.467 0 122.368-55.934 122.368-124.675s-54.906-124.688-122.36-124.688l-.05.003v-.007l-.001-.016zm-507.37-137.856c34.56 0 62.677 28.645 62.677 63.86 0 24.205-13.294 45.31-32.827 56.137a62.7 62.7 0 0 1-4.891 2.4c-.5.22-.992.423-1.484.627-1.276.507-2.58 1.01-3.893 1.453l-1.423.507c-1.724.533-3.47.992-5.234 1.373-.384.083-.808.143-1.214.223-1.464.285-2.944.516-4.43.693l-1.607.178c-1.87.173-3.762.293-5.677.293a64.18 64.18 0 0 1-5.68-.293l-1.61-.178a59.67 59.67 0 0 1-4.432-.692c-.384-.08-.807-.133-1.21-.222-1.762-.382-3.5-.84-5.237-1.374a17.87 17.87 0 0 1-1.413-.506c-1.334-.44-2.627-.93-3.91-1.458l-1.467-.618c-22.17-9.85-37.733-32.368-37.733-58.534.008-35.213 28.127-63.857 62.688-63.857l-.004.001h-.004l.015-.013zm507.37 326.395c-34.558 0-62.675-28.646-62.675-63.86s28.093-63.89 62.675-63.89 62.68 28.645 62.68 63.862-28.134 63.86-62.68 63.86v.026zm-86.48 253.666c-15.928-4.235-32.267 5.487-36.418 21.744L1001.5 1111.62H363.805l-125.24-488.716c35.384-21.882 59.07-61.51 59.07-106.666 0-68.747-54.893-124.675-122.368-124.675S52.893 447.493 52.893 516.24 107.79 640.915 175.26 640.915c2.06 0 4.122-.054 6.18-.16l130.448 508.953c3.434 13.386 15.303 22.753 28.88 22.753h683.783c13.58 0 25.448-9.34 28.88-22.753l71.456-278.84c4.16-16.25-5.395-32.86-21.34-37.107l.004.004zM112.61 516.24c0-35.213 28.134-63.86 62.68-63.86s62.674 28.645 62.674 63.86-28.134 63.86-62.674 63.86-62.68-28.646-62.68-63.86z" fill="#fff"/></svg>