<svg xmlns="http://www.w3.org/2000/svg" viewBox="0 0 512 512" width="682.667" height="682.667" fill="#666"><circle vector-effect="non-scaling-stroke" cx="255.984" cy="492" r="20"/><path d="M412.98 155.775C412.32 69.765 342.147 0 255.984 0c-86.57 0-157 70.43-157 157 0 11.046 8.954 20 20 20s20-8.954 20-20c0-64.514 52.486-117 117-117s117 52.486 117 117a19.7 19.7 0 0 0 .028 1.062c-.405 46.562-28.227 88.348-71.12 106.66-40.038 17.094-65.908 56.675-65.908 100.84V412c0 11.046 8.954 20 20 20s20-8.954 20-20v-46.438c0-28.117 16.334-53.258 41.614-64.05 57.98-24.754 95.433-81.48 95.418-144.516a20.55 20.55 0 0 0-.037-1.22z"/></svg>