<svg xmlns="http://www.w3.org/2000/svg" viewBox="0 0 232.55 243.98"><circle cx="121.99" cy="28.54" r="28.54"/><circle cx="121.99" cy="226.86" r="17.12"/><circle cx="51.87" cy="57.57" r="25.68"/><circle cx="192.11" cy="197.8" r="14.27"/><circle cx="22.82" cy="127.7" r="22.82"/><circle cx="221.14" cy="127.69" r="11.41"/><path d="M37.75 183.7a20 20 0 1 0 28.24 0 19.95 19.95 0 0 0-28.24 0z"/><circle cx="192.1" cy="57.57" r="8.56"/><g fill="#666"><circle cx="121.99" cy="28.54" r="28.54"/><circle cx="121.99" cy="226.86" r="17.12"/><circle cx="51.87" cy="57.57" r="25.68"/><circle cx="192.11" cy="197.8" r="14.27"/><circle cx="22.82" cy="127.7" r="22.82"/><circle cx="221.14" cy="127.69" r="11.41"/><path d="M37.75 183.7a20 20 0 1 0 28.24 0 19.95 19.95 0 0 0-28.24 0z"/><circle cx="192.1" cy="57.57" r="8.56"/></g></svg>