<svg xmlns="http://www.w3.org/2000/svg" viewBox="0 0 442 356.72"><path d="M431.53-.03H10.44A10.44 10.44 0 0 0 0 10.44v290.6a10.43 10.43 0 0 0 10.44 10.43H168.8v25.05a9.28 9.28 0 0 0 .11 1.06H146.2a9.58 9.58 0 1 0 0 19.15H301a9.58 9.58 0 0 0 0-19.15h-22.68c0-.35.1-.7.1-1.06v-25.05h153.13c5.762 0 10.434-4.668 10.44-10.43V10.44A10.47 10.47 0 0 0 431.53-.03zm-19.13 255.5a10.44 10.44 0 0 1-10.4 10.49H40a10.44 10.44 0 0 1-10.44-10.44V35.14c.006-5.764 4.676-10.434 10.44-10.44h362a10.45 10.45 0 0 1 10.4 10.44v220.34z" fill="#666" fill-opacity=".94"/></svg>