<svg xmlns="http://www.w3.org/2000/svg" xmlns:xlink="http://www.w3.org/1999/xlink" viewBox="0 0 234.02 244"><use xlink:href="#A" fill="#030104"/><use xlink:href="#B"/><g fill="#fff"><use xlink:href="#A"/><use xlink:href="#B"/></g><defs><path id="A" d="M205.2 208.3a121.94 121.94 0 0 0 28.83-47h-36.27a86 86 0 0 1-138.94 23c-33.8-34.37-33.8-90.22 0-124.63a86.1 86.1 0 0 1 122.8 0 5.57 5.57 0 0 0 .43.49l-20.02 20.4 63.6-.12.1-64.5-20 20.28a1.88 1.88 0 0 1-.53-.47 118.94 118.94 0 0 0-170 0c-47 47.7-47 124.9 0 172.57a119 119 0 0 0 170.01 0z"/><path id="B" d="M100.27 182.63c-2.2 0-4-2.65-4-5.92V73.24c0-3.26 1.8-5.9 4-5.9l64.68 53.2s3 4.44 0 8.87-64.68 53.22-64.68 53.22z"/></defs></svg>