<svg xmlns="http://www.w3.org/2000/svg" viewBox="0 0 493.349 493.349" width="657.799" height="657.799" fill="#666"><path d="M36.547 27.406c-10.1 0-18.702 3.576-25.84 10.706C3.57 45.25 0 53.865 0 63.953c0 6.66 1.665 12.753 4.998 18.27s7.755 9.897 13.273 13.134v361.45c0 2.666.855 4.856 2.57 6.567s3.9 2.566 6.567 2.566h18.27c2.666 0 4.856-.853 6.567-2.566s2.568-3.9 2.568-6.567V95.358c5.52-3.237 9.945-7.614 13.275-13.134s4.996-11.613 4.996-18.27c0-10.085-3.567-18.698-10.7-25.84-7.138-7.133-15.752-10.706-25.837-10.706zM484.5 66.52c-5.903-3.424-11.8-3.612-17.7-.568l-8.846 4.854c-35.782 21.317-65.28 31.977-88.504 31.977-9.7 0-18.183-1.8-25.413-5.424-21.313-10.468-41.206-18.654-59.67-24.556-18.463-5.896-38.353-8.848-59.67-8.848-13.894 0-28.647 1.8-44.252 5.426s-30.124 8.326-43.542 14.128-24.27 10.754-32.546 14.847c-8.285 4.093-15.755 8.134-22.414 12.133-5.9 3.806-8.853 9.04-8.853 15.703v211.842c0 7.042 3.046 12.374 9.136 15.988 3.045 1.526 6.1 2.282 9.137 2.282 3.424 0 6.567-.855 9.42-2.563 18.08-11.04 39.825-20.752 65.235-29.126s47.826-12.562 67.24-12.562a133.64 133.64 0 0 1 32.547 3.997c10.656 2.663 19.32 5.428 25.98 8.278 6.656 2.857 16.077 7.423 28.264 13.706l7.994 3.997c13.32 6.666 28.356 10 45.1 10 28.746 0 63.86-11.04 105.354-33.12 1.335-.76 2.95-1.615 4.853-2.57 6.66-3.426 9.996-8.847 9.996-16.272V82.224c.005-6.66-2.946-11.893-8.838-15.703zm-27.706 222.702c-32.928 17.507-60.812 26.26-83.65 26.265-10.848 0-20.457-2.095-28.84-6.28l-8-3.996-23.555-11.28c-5.232-2.382-12.566-5.33-21.98-8.85-9.425-3.52-18.75-5.995-27.98-7.423s-19.08-2.14-29.552-2.14c-35.786 0-76.988 10.753-123.624 32.265v-171.02c43.78-24.176 82.134-36.262 115.06-36.262 17.893 0 34.83 2.618 50.815 7.853s33.5 12.515 52.537 21.838c11.984 6.1 25.786 9.137 41.392 9.137 26.076 0 55.2-8.663 87.367-25.98l-.001 175.876z"/></svg>