<svg xmlns="http://www.w3.org/2000/svg" xmlns:xlink="http://www.w3.org/1999/xlink" viewBox="0 0 176 238.64" width="234.667" height="318.187"><g fill="#b3b3b3"><use xlink:href="#B"/><use xlink:href="#C"/><use xlink:href="#D"/><use xlink:href="#E"/><use xlink:href="#F"/></g><use xlink:href="#B"/><use xlink:href="#C"/><use xlink:href="#D"/><use xlink:href="#E" fill="#b3b3b3"/><use xlink:href="#F"/><g fill="#b3b3b3"><use xlink:href="#B"/><use xlink:href="#C"/><use xlink:href="#D"/><use xlink:href="#E"/><use xlink:href="#F"/></g><defs ><path id="B" d="M.67 137.4a119.57 119.57 0 0 1 19.77-1.34c9 0 15.45 1.72 19.77 5.18a18.9 18.9 0 0 1 6.91 15c0 6.33-2.1 11.7-6 15.36-5 4.7-12.38 6.8-21 6.8a37.14 37.14 0 0 1-5-.29v23.13H.67V137.4zm14.5 29.37c1.614.306 3.258.434 4.9.38 7.77 0 12.57-3.93 12.57-10.56 0-6-4.13-9.5-11.42-9.5-2.033-.056-4.065.14-6.05.58v19.1z"/><path id="C" d="M110.46 198.25c-6.97 2.298-14.25 3.526-21.6 3.64-11.8 0-20.35-3-26.3-8.73-5.95-5.57-9.2-14-9.12-23.5.1-21.5 15.74-33.8 37-33.8 8.36 0 14.78 1.64 17.95 3.17l-3.07 11.7c-3.55-1.54-8-2.78-15.07-2.78-12.2 0-21.4 6.9-21.4 20.92 0 13.34 8.35 21.2 20.35 21.2 3.36 0 6-.4 7.2-1v-13.5h-10v-11.42h24.1l-.05 34.1z"/><path id="D" d="M121.88 201.22v-64.68H139l13.43 23.7c4.002 7.152 7.533 14.558 10.57 22.17h.3c-.924-8.97-1.34-17.984-1.25-27v-18.9h13.44v64.68h-15.4l-13.82-24.95A240.8 240.8 0 0 1 135 153.43l-.3.1c.4 8.55.58 17.66.58 28.22v19.48l-13.4-.01z"/><path id="E" d="M0 217.76h176v20.88H0v-20.88zM61.68 0h52.97v79.05H61.68V0z"/><path id="F" d="M39.08 68.56c0-1.92 2.28-3.48 5.1-3.48h89.1c2.8 0 5.1 1.56 5.1 3.48l-45.82 56.52a7 7 0 0 1-7.64 0c-3.8-2.6-45.82-56.52-45.82-56.52h-.02z"/></defs></svg>