<svg xmlns="http://www.w3.org/2000/svg" viewBox="0 0 512 512" width="682.667" height="682.667" fill="#666"><path d="M456.483 48.177c-4.566-3.106-10.786-1.924-13.893 2.642a10 10 0 0 0 2.642 13.893 27.07 27.07 0 0 1 11.44 17.438 27.06 27.06 0 0 1-4.243 20.42c-3.106 4.566-1.924 10.786 2.642 13.893 1.723 1.172 3.68 1.734 5.617 1.734 3.198 0 6.34-1.53 8.276-4.375 7.1-10.434 9.712-23.008 7.355-35.406a46.94 46.94 0 0 0-19.836-30.239zm54.05 23.735c-4.094-21.54-16.332-40.193-34.456-52.526C438.663-6.076 387.5 3.65 362.047 41.064c-12.333 18.125-16.87 39.968-12.777 61.504 1.86 9.78 5.415 18.957 10.422 27.227l-78.028 114.66c-38.767-23.34-83.267-35.805-129.685-35.805-25.183 0-45.67 20.488-45.67 45.67v121.787H94.056c-34.082 0-61.8 27.728-61.8 61.8v48.48H10c-5.522 0-10 4.477-10 10a10 10 0 0 0 10 10h29.42a10 10 0 0 0 2.828.412h74.06c.983 0 1.93-.148 2.828-.412h320.722c5.522 0 10-4.477 10-10a10 10 0 0 0-10-10h-35.803v-25.672c0-65.06-24.485-126.352-69.088-173.366l81.1-119.188c4.495.766 9.058 1.167 13.653 1.167 5.147 0 10.334-.486 15.5-1.468 21.537-4.095 40.2-16.33 52.525-34.455s16.872-39.967 12.777-61.504zM106.308 486.398H52.246v-48.48c0-23.054 18.756-41.8 41.8-41.8h12.252v90.3zm277.748-25.672v25.672h-257.75V254.32c0-14.155 11.516-25.67 25.672-25.67a230.61 230.61 0 0 1 118.32 32.505c5.742 3.417 11.328 7.07 16.737 10.954a233.81 233.81 0 0 1 21.952 17.878c4.997 4.6 9.797 9.408 14.376 14.424 37.68 41.274 60.692 96.156 60.692 156.315zM320.42 273.2c-7.06-6.356-14.423-12.267-22.05-17.732l74.388-109.3c3.367 3.253 7.02 6.258 10.97 8.946s8.08 4.993 12.343 6.932L320.42 273.2zm160.8-151.026c-9.328 13.708-23.437 22.963-39.725 26.06-4.945.94-9.9 1.27-14.812 1.024-11.247-.563-22.158-4.2-31.706-10.688s-16.927-15.317-21.578-25.574c-2.027-4.47-3.542-9.208-4.482-14.153-3.096-16.3.335-32.8 9.664-46.517 12-17.632 31.538-27.132 51.4-27.132 12.02 0 24.167 3.48 34.832 10.736a61.67 61.67 0 0 1 26.06 39.726c3.097 16.3-.335 32.8-9.664 46.518zM282.276 334.87a9.98 9.98 0 0 0-2.55-1.885c-3.727-1.934-8.423-1.375-11.6 1.72a10 10 0 0 0-.166 14.141l.563.588c4.827 4.995 9.297 10.306 13.382 15.884 13.025 17.787 22.152 38.277 26.597 59.827l-7.235-4.628a10 10 0 1 0-10.777 16.848l25.37 16.228c1.667 1.066 3.533 1.577 5.38 1.577a9.99 9.99 0 0 0 8.26-4.352l17.012-24.852a10 10 0 0 0-16.503-11.297l-2.5 3.668c-5.733-25.628-17.33-49.835-33.74-70.438-3.604-4.522-7.436-8.875-11.493-13.028zm-69.232-43.4a172.71 172.71 0 0 0-18.174-4.953l7.005-4.425a10 10 0 0 0 3.113-13.794c-2.948-4.668-9.122-6.063-13.795-3.114l-25.462 16.083c-4.566 2.885-6.016 8.874-3.276 13.528l15.28 25.952c1.864 3.166 5.2 4.928 8.627 4.928 1.724 0 3.47-.446 5.064-1.384a10.01 10.01 0 0 0 3.543-13.7l-2.427-4.122c4.794 1.096 9.532 2.417 14.18 3.966 1.048.35 2.114.516 3.16.516 4.187 0 8.1-2.65 9.486-6.842a10 10 0 0 0-6.326-12.649zm43.488 20.38a9.87 9.87 0 0 0-.92-1.73 9.63 9.63 0 0 0-1.25-1.52 9.58 9.58 0 0 0-1.521-1.24c-.54-.36-1.12-.67-1.72-.92s-1.24-.44-1.87-.57a9.9 9.9 0 0 0-3.91 0 10.1 10.1 0 0 0-1.87.57 9.87 9.87 0 0 0-1.73.92 9.57 9.57 0 0 0-1.52 1.24 9.51 9.51 0 0 0-1.239 1.52 9.87 9.87 0 0 0-.92 1.73 10.1 10.1 0 0 0-.57 1.87 9.85 9.85 0 0 0-.2 1.95 10.06 10.06 0 0 0 2.93 7.07c.46.46.97.88 1.52 1.25a9.87 9.87 0 0 0 1.73.92 10.12 10.12 0 0 0 1.87.57 9.85 9.85 0 0 0 1.95.2 10.02 10.02 0 0 0 1.96-.19c.622-.13 1.243-.317 1.846-.562.008-.003.016-.005.024-.01.6-.25 1.18-.56 1.72-.92.55-.37 1.06-.8 1.52-1.25a10.04 10.04 0 0 0 2.92-6.9l.008-.158a9.84 9.84 0 0 0-.19-1.95 10.1 10.1 0 0 0-.57-1.87z"/></svg>