<svg xmlns="http://www.w3.org/2000/svg" xmlns:xlink="http://www.w3.org/1999/xlink" viewBox="0 0 243 247.93"><use xlink:href="#A" fill="#030104"/><use xlink:href="#A" fill="#b3b3b3"/><use xlink:href="#A" fill="#666"/><defs><path id="A" d="M120 .03h-.48a1.75 1.75 0 0 0-.55 0 124.61 124.61 0 0 0-86.34 35.06L7.27 9.35a4.25 4.25 0 0 0-7.27 3v83.58a4.26 4.26 0 0 0 4.24 4.26H87a4.25 4.25 0 0 0 2.12-7.93L64.1 66.93a78.79 78.79 0 0 1 55.48-22.19c43.36.28 78.7 35.78 78.7 79.86-.33 43.32-35.86 78.6-79.92 78.6l.1 44.74h.6c67.9 0 123.5-55.26 124-123.94C243 56.14 187.88.6 120 .03z"/></defs></svg>