<?xml version="1.0" encoding="UTF-8"?>
<!DOCTYPE svg  PUBLIC '-//W3C//DTD SVG 1.1//EN'  'http://www.w3.org/Graphics/SVG/1.1/DTD/svg11.dtd'>
<svg version="1.1" viewBox="0 0 45 45" xmlns="http://www.w3.org/2000/svg">
<g fill="000000" fill-rule="evenodd" stroke="#000" stroke-linecap="round" stroke-linejoin="round" stroke-width="1.5">
<g fill="#000" stroke="none">
<circle cx="6" cy="12" r="2.75"/>
<circle cx="14" cy="9" r="2.75"/>
<circle cx="22.5" cy="8" r="2.75"/>
<circle cx="31" cy="9" r="2.75"/>
<circle cx="39" cy="12" r="2.75"/>
</g>
<path d="m9 26c8.5-1.5 21-1.5 27 0l2.5-12.5-7.5 11.5-0.3-14.1-5.2 13.6-3-14.5-3 14.5-5.2-13.6-0.3 14.1-7.5-11.5 2.5 12.5z" stroke="#000" stroke-linecap="butt"/>
<path d="m9 26c0 2 1.5 2 2.5 4 1 1.5 1 1 0.5 3.5-1.5 1-1.5 2.5-1.5 2.5-1.5 1.5 0.5 2.5 0.5 2.5 6.5 1 16.5 1 23 0 0 0 1.5-1 0-2.5 0 0 0.5-1.5-1-2.5-0.5-2.5-0.5-2 0.5-3.5 1-2 2.5-2 2.5-4-8.5-1.5-18.5-1.5-27 0z" stroke-linecap="butt"/>
<path d="m11 38.5a35 35 1 0 0 23 0" fill="none" stroke="#000" stroke-linecap="butt"/>
<path d="m11 29a35 35 1 0 1 23 0" fill="none" stroke="#fff"/>
<path d="m12.5 31.5h20" fill="none" stroke="#fff"/>
<path d="m11.5 34.5a35 35 1 0 0 22 0" fill="none" stroke="#fff"/>
<path d="m10.5 37.5a35 35 1 0 0 24 0" fill="none" stroke="#fff"/>
</g>
</svg>
