<?xml version="1.0" encoding="UTF-8"?>
<!DOCTYPE svg  PUBLIC '-//W3C//DTD SVG 1.1//EN'  'http://www.w3.org/Graphics/SVG/1.1/DTD/svg11.dtd'>
<svg version="1.1" viewBox="0 0 45 45" xmlns="http://www.w3.org/2000/svg">
<g fill="000000" fill-rule="evenodd" stroke="#000" stroke-linecap="round" stroke-linejoin="round" stroke-width="1.5">
<path d="m9 39h27v-3h-27v3z" stroke-linecap="butt"/>
<path d="m12.5 32 1.5-2.5h17l1.5 2.5h-20z" stroke-linecap="butt"/>
<path d="m12 36v-4h21v4h-21z" stroke-linecap="butt"/>
<path d="m14 29.5v-13h17v13h-17z" stroke-linecap="butt" stroke-linejoin="miter"/>
<path d="m14 16.5-3-2.5h23l-3 2.5h-17z" stroke-linecap="butt"/>
<path d="m11 14v-5h4v2h5v-2h5v2h5v-2h4v5h-23z" stroke-linecap="butt"/>
<path d="m12 35.5h21" fill="none" stroke="#fff" stroke-linejoin="miter" stroke-width="1"/>
<path d="m13 31.5h19" fill="none" stroke="#fff" stroke-linejoin="miter" stroke-width="1"/>
<path d="m14 29.5h17" fill="none" stroke="#fff" stroke-linejoin="miter" stroke-width="1"/>
<path d="m14 16.5h17" fill="none" stroke="#fff" stroke-linejoin="miter" stroke-width="1"/>
<path d="m11 14h23" fill="none" stroke="#fff" stroke-linejoin="miter" stroke-width="1"/>
</g>
</svg>
