<?xml version="1.0" encoding="UTF-8" standalone="no"?>
<!-- Generator: Adobe Illustrator 14.0.0, SVG Export Plug-In . SVG Version: 6.00 Build 43363)  -->

<svg
   xmlns:dc="http://purl.org/dc/elements/1.1/"
   xmlns:cc="http://creativecommons.org/ns#"
   xmlns:rdf="http://www.w3.org/1999/02/22-rdf-syntax-ns#"
   xmlns:svg="http://www.w3.org/2000/svg"
   xmlns="http://www.w3.org/2000/svg"
   xmlns:sodipodi="http://sodipodi.sourceforge.net/DTD/sodipodi-0.dtd"
   xmlns:inkscape="http://www.inkscape.org/namespaces/inkscape"
   version="1.1"
   id="svg2"
   x="0px"
   y="0px"
   width="1200px"
   height="1200px"
   viewBox="0 0 1200 1200"
   enable-background="new 0 0 1200 1200"
   xml:space="preserve"
   inkscape:version="0.48.2 r9819"
   sodipodi:docname="AAA_SVG_Chessboard_and_chess_pieces_06.svg"><metadata
   id="metadata231"><rdf:RDF><cc:Work
       rdf:about=""><dc:format>image/svg+xml</dc:format><dc:type
         rdf:resource="http://purl.org/dc/dcmitype/StillImage" /></cc:Work></rdf:RDF></metadata><defs
   id="defs229" /><sodipodi:namedview
   pagecolor="#ffffff"
   bordercolor="#666666"
   borderopacity="1"
   objecttolerance="10"
   gridtolerance="10"
   guidetolerance="10"
   inkscape:pageopacity="0"
   inkscape:pageshadow="2"
   inkscape:window-width="1366"
   inkscape:window-height="716"
   id="namedview227"
   showgrid="false"
   inkscape:zoom="0.41416667"
   inkscape:cx="600"
   inkscape:cy="605.09745"
   inkscape:window-x="-8"
   inkscape:window-y="-8"
   inkscape:window-maximized="1"
   inkscape:current-layer="svg2" />

































<rect
   style="fill:#000000;fill-opacity:1;stroke:none"
   id="rect3208"
   width="150"
   height="150"
   x="0"
   y="1050" /><rect
   y="1050"
   x="150"
   height="150"
   width="150"
   id="rect3978"
   style="fill:#ffffff;fill-opacity:1;stroke:none" /><rect
   y="1050"
   x="300"
   height="150"
   width="150"
   id="rect3980"
   style="fill:#000000;fill-opacity:1;stroke:none" /><rect
   style="fill:#ffffff;fill-opacity:1;stroke:none"
   id="rect3982"
   width="150"
   height="150"
   x="450"
   y="1050" /><rect
   style="fill:#000000;fill-opacity:1;stroke:none"
   id="rect3984"
   width="150"
   height="150"
   x="600"
   y="1050" /><rect
   y="1050"
   x="750"
   height="150"
   width="150"
   id="rect3986"
   style="fill:#ffffff;fill-opacity:1;stroke:none" /><rect
   y="1050"
   x="900"
   height="150"
   width="150"
   id="rect3988"
   style="fill:#000000;fill-opacity:1;stroke:none" /><rect
   style="fill:#ffffff;fill-opacity:1;stroke:none"
   id="rect3990"
   width="150"
   height="150"
   x="1050"
   y="1050" /><rect
   y="900"
   x="-1200"
   height="150"
   width="150"
   id="rect4004"
   style="fill:#000000;fill-opacity:1;stroke:none"
   transform="scale(-1,1)" /><rect
   style="fill:#ffffff;fill-opacity:1;stroke:none"
   id="rect4006"
   width="150"
   height="150"
   x="-1050"
   y="900"
   transform="scale(-1,1)" /><rect
   style="fill:#000000;fill-opacity:1;stroke:none"
   id="rect4008"
   width="150"
   height="150"
   x="-900"
   y="900"
   transform="scale(-1,1)" /><rect
   y="900"
   x="-750"
   height="150"
   width="150"
   id="rect4010"
   style="fill:#ffffff;fill-opacity:1;stroke:none"
   transform="scale(-1,1)" /><rect
   y="900"
   x="-600"
   height="150"
   width="150"
   id="rect4012"
   style="fill:#000000;fill-opacity:1;stroke:none"
   transform="scale(-1,1)" /><rect
   style="fill:#ffffff;fill-opacity:1;stroke:none"
   id="rect4014"
   width="150"
   height="150"
   x="-450"
   y="900"
   transform="scale(-1,1)" /><rect
   style="fill:#000000;fill-opacity:1;stroke:none"
   id="rect4016"
   width="150"
   height="150"
   x="-300"
   y="900"
   transform="scale(-1,1)" /><rect
   y="900"
   x="-150"
   height="150"
   width="150"
   id="rect4018"
   style="fill:#ffffff;fill-opacity:1;stroke:none"
   transform="scale(-1,1)" /><rect
   y="750"
   x="0"
   height="150"
   width="150"
   id="rect4022"
   style="fill:#000000;fill-opacity:1;stroke:none" /><rect
   style="fill:#ffffff;fill-opacity:1;stroke:none"
   id="rect4024"
   width="150"
   height="150"
   x="150"
   y="750" /><rect
   style="fill:#000000;fill-opacity:1;stroke:none"
   id="rect4026"
   width="150"
   height="150"
   x="300"
   y="750" /><rect
   y="750"
   x="450"
   height="150"
   width="150"
   id="rect4028"
   style="fill:#ffffff;fill-opacity:1;stroke:none" /><rect
   y="750"
   x="600"
   height="150"
   width="150"
   id="rect4030"
   style="fill:#000000;fill-opacity:1;stroke:none" /><rect
   style="fill:#ffffff;fill-opacity:1;stroke:none"
   id="rect4032"
   width="150"
   height="150"
   x="750"
   y="750" /><rect
   style="fill:#000000;fill-opacity:1;stroke:none"
   id="rect4034"
   width="150"
   height="150"
   x="900"
   y="750" /><rect
   y="750"
   x="1050"
   height="150"
   width="150"
   id="rect4036"
   style="fill:#ffffff;fill-opacity:1;stroke:none" /><rect
   style="fill:#000000;fill-opacity:1;stroke:none"
   id="rect4040"
   width="150"
   height="150"
   x="-1200"
   y="600"
   transform="scale(-1,1)" /><rect
   y="600"
   x="-1050"
   height="150"
   width="150"
   id="rect4042"
   style="fill:#ffffff;fill-opacity:1;stroke:none"
   transform="scale(-1,1)" /><rect
   y="600"
   x="-900"
   height="150"
   width="150"
   id="rect4044"
   style="fill:#000000;fill-opacity:1;stroke:none"
   transform="scale(-1,1)" /><rect
   style="fill:#ffffff;fill-opacity:1;stroke:none"
   id="rect4046"
   width="150"
   height="150"
   x="-750"
   y="600"
   transform="scale(-1,1)" /><rect
   style="fill:#000000;fill-opacity:1;stroke:none"
   id="rect4048"
   width="150"
   height="150"
   x="-600"
   y="600"
   transform="scale(-1,1)" /><rect
   y="600"
   x="-450"
   height="150"
   width="150"
   id="rect4050"
   style="fill:#ffffff;fill-opacity:1;stroke:none"
   transform="scale(-1,1)" /><rect
   y="600"
   x="-300"
   height="150"
   width="150"
   id="rect4052"
   style="fill:#000000;fill-opacity:1;stroke:none"
   transform="scale(-1,1)" /><rect
   style="fill:#ffffff;fill-opacity:1;stroke:none"
   id="rect4054"
   width="150"
   height="150"
   x="-150"
   y="600"
   transform="scale(-1,1)" /><rect
   style="fill:#000000;fill-opacity:1;stroke:none"
   id="rect4058"
   width="150"
   height="150"
   x="0"
   y="450" /><rect
   y="450"
   x="150"
   height="150"
   width="150"
   id="rect4060"
   style="fill:#ffffff;fill-opacity:1;stroke:none" /><rect
   y="450"
   x="300"
   height="150"
   width="150"
   id="rect4062"
   style="fill:#000000;fill-opacity:1;stroke:none" /><rect
   style="fill:#ffffff;fill-opacity:1;stroke:none"
   id="rect4064"
   width="150"
   height="150"
   x="450"
   y="450" /><rect
   style="fill:#000000;fill-opacity:1;stroke:none"
   id="rect4066"
   width="150"
   height="150"
   x="600"
   y="450" /><rect
   y="450"
   x="750"
   height="150"
   width="150"
   id="rect4068"
   style="fill:#ffffff;fill-opacity:1;stroke:none" /><rect
   y="450"
   x="900"
   height="150"
   width="150"
   id="rect4070"
   style="fill:#000000;fill-opacity:1;stroke:none" /><rect
   style="fill:#ffffff;fill-opacity:1;stroke:none"
   id="rect4072"
   width="150"
   height="150"
   x="1050"
   y="450" /><rect
   y="300"
   x="-1200"
   height="150"
   width="150"
   id="rect4076"
   style="fill:#000000;fill-opacity:1;stroke:none"
   transform="scale(-1,1)" /><rect
   style="fill:#ffffff;fill-opacity:1;stroke:none"
   id="rect4078"
   width="150"
   height="150"
   x="-1050"
   y="300"
   transform="scale(-1,1)" /><rect
   style="fill:#000000;fill-opacity:1;stroke:none"
   id="rect4080"
   width="150"
   height="150"
   x="-900"
   y="300"
   transform="scale(-1,1)" /><rect
   y="300"
   x="-750"
   height="150"
   width="150"
   id="rect4082"
   style="fill:#ffffff;fill-opacity:1;stroke:none"
   transform="scale(-1,1)" /><rect
   y="300"
   x="-600"
   height="150"
   width="150"
   id="rect4084"
   style="fill:#000000;fill-opacity:1;stroke:none"
   transform="scale(-1,1)" /><rect
   style="fill:#ffffff;fill-opacity:1;stroke:none"
   id="rect4086"
   width="150"
   height="150"
   x="-450"
   y="300"
   transform="scale(-1,1)" /><rect
   style="fill:#000000;fill-opacity:1;stroke:none"
   id="rect4088"
   width="150"
   height="150"
   x="-300"
   y="300"
   transform="scale(-1,1)" /><rect
   y="300"
   x="-150"
   height="150"
   width="150"
   id="rect4090"
   style="fill:#ffffff;fill-opacity:1;stroke:none"
   transform="scale(-1,1)" /><rect
   y="150"
   x="0"
   height="150"
   width="150"
   id="rect4094"
   style="fill:#000000;fill-opacity:1;stroke:none" /><rect
   style="fill:#ffffff;fill-opacity:1;stroke:none"
   id="rect4096"
   width="150"
   height="150"
   x="150"
   y="150" /><rect
   style="fill:#000000;fill-opacity:1;stroke:none"
   id="rect4098"
   width="150"
   height="150"
   x="300"
   y="150" /><rect
   y="150"
   x="450"
   height="150"
   width="150"
   id="rect4100"
   style="fill:#ffffff;fill-opacity:1;stroke:none" /><rect
   y="150"
   x="600"
   height="150"
   width="150"
   id="rect4102"
   style="fill:#000000;fill-opacity:1;stroke:none" /><rect
   style="fill:#ffffff;fill-opacity:1;stroke:none"
   id="rect4104"
   width="150"
   height="150"
   x="750"
   y="150" /><rect
   style="fill:#000000;fill-opacity:1;stroke:none"
   id="rect4106"
   width="150"
   height="150"
   x="900"
   y="150" /><rect
   y="150"
   x="1050"
   height="150"
   width="150"
   id="rect4108"
   style="fill:#ffffff;fill-opacity:1;stroke:none" /><rect
   style="fill:#000000;fill-opacity:1;stroke:none"
   id="rect4112"
   width="150"
   height="150"
   x="-1200"
   y="0"
   transform="scale(-1,1)" /><rect
   y="0"
   x="-1050"
   height="150"
   width="150"
   id="rect4114"
   style="fill:#ffffff;fill-opacity:1;stroke:none"
   transform="scale(-1,1)" /><rect
   y="0"
   x="-900"
   height="150"
   width="150"
   id="rect4116"
   style="fill:#000000;fill-opacity:1;stroke:none"
   transform="scale(-1,1)" /><rect
   style="fill:#ffffff;fill-opacity:1;stroke:none"
   id="rect4118"
   width="150"
   height="150"
   x="-750"
   y="0"
   transform="scale(-1,1)" /><rect
   style="fill:#000000;fill-opacity:1;stroke:none"
   id="rect4120"
   width="150"
   height="150"
   x="-600"
   y="0"
   transform="scale(-1,1)" /><rect
   y="0"
   x="-450"
   height="150"
   width="150"
   id="rect4122"
   style="fill:#ffffff;fill-opacity:1;stroke:none"
   transform="scale(-1,1)" /><rect
   y="0"
   x="-300"
   height="150"
   width="150"
   id="rect4124"
   style="fill:#000000;fill-opacity:1;stroke:none"
   transform="scale(-1,1)" /><rect
   style="fill:#ffffff;fill-opacity:1;stroke:none"
   id="rect4126"
   width="150"
   height="150"
   x="-150"
   y="0"
   transform="scale(-1,1)" /><rect
   transform="scale(-1,1)"
   y="5"
   x="-1195"
   height="1190"
   width="1190"
   id="rect4386"
   style="fill:none;stroke:#000000;stroke-width:10;stroke-miterlimit:4;stroke-opacity:1;stroke-dasharray:none" /><path
   id="path3194"
   d="m 75.001,928.2195 c -6.772,0 -12.269,5.497 -12.269,12.27 0,2.716 0.901,5.253 2.396,7.286 -5.987,3.441 -10.064,9.857 -10.064,17.255 0,6.239 2.889,11.776 7.38,15.434 -9.199,3.245 -22.717,17.015 -22.717,41.316 h 70.546 c 0,-24.302 -13.518,-38.071 -22.717,-41.316 4.491,-3.657 7.381,-9.194 7.381,-15.434 0,-7.397 -4.078,-13.813 -10.064,-17.255 1.495,-2.033 2.396,-4.57 2.396,-7.286 10e-4,-6.773 -5.495,-12.27 -12.268,-12.27 z"
   inkscape:connector-curvature="0"
   style="stroke:#ffffff;stroke-width:5;stroke-linecap:round" /><path
   id="path2575"
   d="m 1125,178.2195 c -6.772,0 -12.269,5.497 -12.269,12.27 0,2.715 0.901,5.253 2.396,7.286 -5.987,3.442 -10.064,9.857 -10.064,17.255 0,6.24 2.89,11.777 7.38,15.434 -9.198,3.245 -22.716,17.015 -22.716,41.316 h 70.546 c 0,-24.301 -13.518,-38.071 -22.717,-41.316 4.491,-3.657 7.381,-9.194 7.381,-15.434 0,-7.397 -4.077,-13.813 -10.064,-17.255 1.494,-2.033 2.396,-4.57 2.396,-7.286 0,-6.773 -5.497,-12.27 -12.269,-12.27 z"
   inkscape:connector-curvature="0"
   style="fill:#ffffff;stroke:#000000;stroke-width:5;stroke-linecap:round" /><g
   id="g3010"
   transform="matrix(3.067229,0,0,3.067558,-496.97026,-3049.5257)">
	<path
   id="path2996"
   d="m 270.786,1032.414 c 3.385,-0.972 10.115,0.431 13.5,-2 3.385,2.431 10.115,1.028 13.5,2 0,0 1.646,0.542 3,2 -0.677,0.972 -1.646,0.986 -3,0.5 -3.385,-0.972 -10.115,0.458 -13.5,-1 -3.385,1.458 -10.115,0.028 -13.5,1 -1.354,0.486 -2.323,0.472 -3,-0.5 1.354,-1.944 3,-2 3,-2 z"
   inkscape:connector-curvature="0"
   style="fill:#ffffff;stroke:#000000;stroke-width:1.63;stroke-linejoin:round" />
	<path
   id="path2998"
   d="m 276.786,1028.414 c 2.5,2.5 12.5,2.5 15,0 0.5,-1.5 0,-2 0,-2 0,-2.5 -2.5,-4 -2.5,-4 5.5,-1.5 6,-11.5 -5,-15.5 -11,4 -10.5,14 -5,15.5 0,0 -2.5,1.5 -2.5,4 0,0 -0.5,0.5 0,2 z"
   inkscape:connector-curvature="0"
   style="fill:#ffffff;stroke:#000000;stroke-width:1.63;stroke-linejoin:round" />
	<path
   id="path3000"
   d="m 286.786,1004.414 c 0,1.381 -1.119,2.5 -2.5,2.5 -1.38,0 -2.5,-1.119 -2.5,-2.5 0,-1.381 1.119,-2.5 2.5,-2.5 1.38,0 2.5,1.12 2.5,2.5 z"
   inkscape:connector-curvature="0"
   style="fill:#ffffff;stroke:#000000;stroke-width:1.63;stroke-linejoin:round" />
	<path
   id="path3002"
   d="m 279.286,1022.414 h 10"
   inkscape:connector-curvature="0"
   style="fill:none;stroke:#000000;stroke-width:1.63" />
	<path
   id="path3004"
   d="m 276.786,1026.414 h 15"
   inkscape:connector-curvature="0"
   style="fill:none;stroke:#000000;stroke-width:1.63" />
	<path
   id="path3006"
   d="m 284.286,1011.914 v 5"
   inkscape:connector-curvature="0"
   style="fill:none;stroke:#000000;stroke-width:1.63;stroke-linecap:round" />
	<path
   id="path3008"
   d="m 281.786,1014.414 h 5"
   inkscape:connector-curvature="0"
   style="fill:none;stroke:#000000;stroke-width:1.63;stroke-linecap:round" />
</g><g
   id="g3218"
   transform="matrix(3.067229,0,0,3.067558,-827.64255,-3347.5174)">
	<path
   id="path3119"
   d="m 280.786,1130.714 h 27 v -3 h -27 v 3 z"
   inkscape:connector-curvature="0"
   style="fill:#ffffff;stroke:#000000;stroke-width:1.63;stroke-linejoin:round" />
	<path
   id="path3121"
   d="m 283.786,1127.714 v -4 h 21 v 4 h -21 z"
   inkscape:connector-curvature="0"
   style="fill:#ffffff;stroke:#000000;stroke-width:1.63;stroke-linejoin:round" />
	<path
   id="path3129"
   d="m 282.786,1105.714 v -5 h 4 v 2 h 5 v -2 h 5 v 2 h 5 v -2 h 4 v 5"
   inkscape:connector-curvature="0"
   style="fill:#ffffff;stroke:#000000;stroke-width:1.63;stroke-linejoin:round" />
	<path
   id="path3127"
   d="m 305.786,1105.714 -3,3 h -17 l -3,-3"
   inkscape:connector-curvature="0"
   style="fill:#ffffff;stroke:#000000;stroke-width:1.63;stroke-linecap:round;stroke-linejoin:round" />
	<path
   id="path3125"
   d="m 302.786,1108.714 v 12.5 h -17 v -12.5"
   inkscape:connector-curvature="0"
   style="fill:#ffffff;stroke:#000000;stroke-width:1.63" />
	<path
   id="path3123"
   d="m 302.786,1121.214 1.5,2.5 h -20 l 1.5,-2.5"
   inkscape:connector-curvature="0"
   style="fill:#ffffff;stroke:#000000;stroke-width:1.63;stroke-linecap:round;stroke-linejoin:round" />
	<path
   id="path5175"
   d="m 282.786,1105.714 h 23"
   inkscape:connector-curvature="0"
   style="fill:none;stroke:#000000;stroke-width:1.63;stroke-linecap:round" />
</g><g
   id="g3388"
   transform="matrix(3.067229,0,0,3.067558,-46.970263,-3049.5257)">
	<path
   id="path3390"
   d="m 270.786,1032.414 c 3.385,-0.972 10.114,0.431 13.5,-2 3.385,2.431 10.115,1.028 13.5,2 0,0 1.646,0.542 3,2 -0.677,0.972 -1.646,0.986 -3,0.5 -3.385,-0.972 -10.114,0.458 -13.5,-1 -3.385,1.458 -10.115,0.028 -13.5,1 -1.354,0.486 -2.323,0.472 -3,-0.5 1.354,-1.944 3,-2 3,-2 z"
   inkscape:connector-curvature="0"
   style="fill:#ffffff;stroke:#000000;stroke-width:1.63;stroke-linejoin:round" />
	<path
   id="path3392"
   d="m 276.786,1028.414 c 2.5,2.5 12.5,2.5 15,0 0.5,-1.5 0,-2 0,-2 0,-2.5 -2.5,-4 -2.5,-4 5.5,-1.5 6,-11.5 -5,-15.5 -11,4 -10.5,14 -5,15.5 0,0 -2.5,1.5 -2.5,4 0,0 -0.5,0.5 0,2 z"
   inkscape:connector-curvature="0"
   style="fill:#ffffff;stroke:#000000;stroke-width:1.63;stroke-linejoin:round" />
	<path
   id="path3394"
   d="m 286.786,1004.414 c 0,1.381 -1.119,2.5 -2.5,2.5 -1.381,0 -2.5,-1.119 -2.5,-2.5 0,-1.381 1.119,-2.5 2.5,-2.5 1.381,0 2.5,1.12 2.5,2.5 z"
   inkscape:connector-curvature="0"
   style="fill:#ffffff;stroke:#000000;stroke-width:1.63;stroke-linejoin:round" />
	<path
   id="path3396"
   d="m 279.286,1022.414 h 10"
   inkscape:connector-curvature="0"
   style="fill:none;stroke:#000000;stroke-width:1.63" />
	<path
   id="path3398"
   d="m 276.786,1026.414 h 15"
   inkscape:connector-curvature="0"
   style="fill:none;stroke:#000000;stroke-width:1.63" />
	<path
   id="path3400"
   d="m 284.286,1011.914 v 5"
   inkscape:connector-curvature="0"
   style="fill:none;stroke:#000000;stroke-width:1.63;stroke-linecap:round" />
	<path
   id="path3402"
   d="m 281.786,1014.414 h 5"
   inkscape:connector-curvature="0"
   style="fill:none;stroke:#000000;stroke-width:1.63;stroke-linecap:round" />
</g><g
   id="g3416"
   transform="matrix(3.067229,0,0,3.067558,222.35745,-3347.5174)">
	<path
   id="path3418"
   d="m 280.786,1130.714 h 27 v -3 h -27 v 3 z"
   inkscape:connector-curvature="0"
   style="fill:#ffffff;stroke:#000000;stroke-width:1.63;stroke-linejoin:round" />
	<path
   id="path3420"
   d="m 283.786,1127.714 v -4 h 21 v 4 h -21 z"
   inkscape:connector-curvature="0"
   style="fill:#ffffff;stroke:#000000;stroke-width:1.63;stroke-linejoin:round" />
	<path
   id="path3422"
   d="m 282.786,1105.714 v -5 h 4 v 2 h 5 v -2 h 5 v 2 h 5 v -2 h 4 v 5"
   inkscape:connector-curvature="0"
   style="fill:#ffffff;stroke:#000000;stroke-width:1.63;stroke-linejoin:round" />
	<path
   id="path3424"
   d="m 305.786,1105.714 -3,3 h -17 l -3,-3"
   inkscape:connector-curvature="0"
   style="fill:#ffffff;stroke:#000000;stroke-width:1.63;stroke-linecap:round;stroke-linejoin:round" />
	<path
   id="path3426"
   d="m 302.786,1108.714 v 12.5 h -17 v -12.5"
   inkscape:connector-curvature="0"
   style="fill:#ffffff;stroke:#000000;stroke-width:1.63" />
	<path
   id="path3428"
   d="m 302.786,1121.214 1.5,2.5 h -20 l 1.5,-2.5"
   inkscape:connector-curvature="0"
   style="fill:#ffffff;stroke:#000000;stroke-width:1.63;stroke-linecap:round;stroke-linejoin:round" />
	<path
   id="path3430"
   d="m 282.786,1105.714 h 23"
   inkscape:connector-curvature="0"
   style="fill:none;stroke:#000000;stroke-width:1.63;stroke-linecap:round" />
</g><path
   id="path3432"
   d="m 975.001,178.2195 c -6.772,0 -12.27,5.497 -12.27,12.27 0,2.715 0.902,5.253 2.396,7.286 -5.987,3.442 -10.064,9.857 -10.064,17.255 0,6.24 2.89,11.777 7.381,15.434 -9.199,3.245 -22.717,17.015 -22.717,41.316 h 70.546 c 0,-24.301 -13.518,-38.071 -22.717,-41.316 4.491,-3.657 7.381,-9.194 7.381,-15.434 0,-7.397 -4.077,-13.813 -10.064,-17.255 1.495,-2.033 2.396,-4.57 2.396,-7.286 10e-4,-6.773 -5.495,-12.27 -12.268,-12.27 z"
   inkscape:connector-curvature="0"
   style="fill:#ffffff;stroke:#000000;stroke-width:5;stroke-linecap:round" /><path
   id="path3434"
   d="m 825.0005,178.2195 c -6.772,0 -12.27,5.497 -12.27,12.27 0,2.715 0.902,5.253 2.396,7.286 -5.987,3.442 -10.064,9.857 -10.064,17.255 0,6.24 2.89,11.777 7.381,15.434 -9.199,3.245 -22.717,17.015 -22.717,41.316 h 70.547 c 0,-24.301 -13.518,-38.071 -22.717,-41.316 4.49,-3.657 7.38,-9.194 7.38,-15.434 0,-7.397 -4.077,-13.813 -10.064,-17.255 1.495,-2.033 2.396,-4.57 2.396,-7.286 10e-4,-6.773 -5.495,-12.27 -12.268,-12.27 z"
   inkscape:connector-curvature="0"
   style="fill:#ffffff;stroke:#000000;stroke-width:5;stroke-linecap:round" /><path
   id="path3436"
   d="m 674.9995,178.2195 c -6.772,0 -12.269,5.497 -12.269,12.27 0,2.715 0.901,5.253 2.396,7.286 -5.986,3.442 -10.063,9.857 -10.063,17.255 0,6.24 2.889,11.777 7.38,15.434 -9.199,3.245 -22.717,17.015 -22.717,41.316 h 70.547 c 0,-24.301 -13.518,-38.071 -22.717,-41.316 4.491,-3.657 7.38,-9.194 7.38,-15.434 0,-7.397 -4.077,-13.813 -10.063,-17.255 1.494,-2.033 2.396,-4.57 2.396,-7.286 -10e-4,-6.773 -5.497,-12.27 -12.27,-12.27 z"
   inkscape:connector-curvature="0"
   style="fill:#ffffff;stroke:#000000;stroke-width:5;stroke-linecap:round" /><path
   id="path3438"
   d="m 525,178.2195 c -6.772,0 -12.269,5.497 -12.269,12.27 0,2.715 0.901,5.253 2.396,7.286 -5.987,3.442 -10.064,9.857 -10.064,17.255 0,6.24 2.89,11.777 7.38,15.434 -9.198,3.245 -22.716,17.015 -22.716,41.316 h 70.546 c 0,-24.301 -13.518,-38.071 -22.717,-41.316 4.491,-3.657 7.381,-9.194 7.381,-15.434 0,-7.397 -4.077,-13.813 -10.064,-17.255 1.494,-2.033 2.396,-4.57 2.396,-7.286 10e-4,-6.773 -5.496,-12.27 -12.269,-12.27 z"
   inkscape:connector-curvature="0"
   style="fill:#ffffff;stroke:#000000;stroke-width:5;stroke-linecap:round" /><path
   id="path3440"
   d="m 375,178.2195 c -6.772,0 -12.269,5.497 -12.269,12.27 0,2.715 0.901,5.253 2.396,7.286 -5.987,3.442 -10.064,9.857 -10.064,17.255 0,6.24 2.89,11.777 7.381,15.434 -9.199,3.245 -22.717,17.015 -22.717,41.316 h 70.546 c 0,-24.301 -13.518,-38.071 -22.717,-41.316 4.491,-3.657 7.381,-9.194 7.381,-15.434 0,-7.397 -4.077,-13.813 -10.064,-17.255 1.494,-2.033 2.396,-4.57 2.396,-7.286 10e-4,-6.773 -5.496,-12.27 -12.269,-12.27 z"
   inkscape:connector-curvature="0"
   style="fill:#ffffff;stroke:#000000;stroke-width:5;stroke-linecap:round" /><path
   id="path3442"
   d="m 225,178.2195 c -6.772,0 -12.269,5.497 -12.269,12.27 0,2.715 0.902,5.253 2.396,7.286 -5.987,3.442 -10.064,9.857 -10.064,17.255 0,6.24 2.89,11.777 7.381,15.434 -9.199,3.245 -22.717,17.015 -22.717,41.316 h 70.546 c 0,-24.301 -13.518,-38.071 -22.717,-41.316 4.491,-3.657 7.38,-9.194 7.38,-15.434 0,-7.397 -4.077,-13.813 -10.064,-17.255 1.495,-2.033 2.396,-4.57 2.396,-7.286 0.001,-6.773 -5.496,-12.27 -12.268,-12.27 z"
   inkscape:connector-curvature="0"
   style="fill:#ffffff;stroke:#000000;stroke-width:5;stroke-linecap:round" /><path
   id="path3444"
   d="m 75.001,178.2195 c -6.772,0 -12.269,5.497 -12.269,12.27 0,2.715 0.902,5.253 2.396,7.286 -5.987,3.442 -10.064,9.857 -10.064,17.255 0,6.24 2.889,11.777 7.38,15.434 -9.199,3.245 -22.717,17.015 -22.717,41.316 h 70.546 c 0,-24.301 -13.518,-38.071 -22.717,-41.316 4.491,-3.657 7.381,-9.194 7.381,-15.434 0,-7.397 -4.077,-13.813 -10.064,-17.255 1.495,-2.033 2.396,-4.57 2.396,-7.286 0,-6.773 -5.496,-12.27 -12.268,-12.27 z"
   inkscape:connector-curvature="0"
   style="fill:#ffffff;stroke:#000000;stroke-width:5;stroke-linecap:round" /><path
   id="path17042"
   d="m 225,928.2195 c -6.772,0 -12.269,5.497 -12.269,12.27 0,2.716 0.902,5.253 2.396,7.286 -5.987,3.441 -10.064,9.857 -10.064,17.255 0,6.239 2.89,11.776 7.381,15.434 -9.199,3.245 -22.717,17.015 -22.717,41.316 h 70.546 c 0,-24.302 -13.518,-38.071 -22.717,-41.316 4.491,-3.657 7.38,-9.194 7.38,-15.434 0,-7.397 -4.077,-13.813 -10.064,-17.255 1.495,-2.033 2.396,-4.57 2.396,-7.286 0.001,-6.773 -5.496,-12.27 -12.268,-12.27 z"
   inkscape:connector-curvature="0"
   style="stroke:#ffffff;stroke-width:5;stroke-linecap:round" /><path
   id="path17044"
   d="m 374.9995,928.2195 c -6.772,0 -12.269,5.497 -12.269,12.27 0,2.716 0.901,5.253 2.396,7.286 -5.986,3.441 -10.064,9.857 -10.064,17.255 0,6.239 2.89,11.776 7.381,15.434 -9.199,3.245 -22.717,17.015 -22.717,41.316 h 70.547 c 0,-24.302 -13.518,-38.071 -22.717,-41.316 4.491,-3.657 7.38,-9.194 7.38,-15.434 0,-7.397 -4.077,-13.813 -10.063,-17.255 1.494,-2.033 2.396,-4.57 2.396,-7.286 -0.002,-6.773 -5.498,-12.27 -12.27,-12.27 z"
   inkscape:connector-curvature="0"
   style="stroke:#ffffff;stroke-width:5;stroke-linecap:round" /><path
   id="path17046"
   d="m 525,928.2195 c -6.772,0 -12.269,5.497 -12.269,12.27 0,2.716 0.901,5.253 2.396,7.286 -5.987,3.441 -10.064,9.857 -10.064,17.255 0,6.239 2.89,11.776 7.38,15.434 -9.198,3.245 -22.716,17.015 -22.716,41.316 h 70.546 c 0,-24.302 -13.518,-38.071 -22.717,-41.316 4.491,-3.657 7.381,-9.194 7.381,-15.434 0,-7.397 -4.077,-13.813 -10.064,-17.255 1.494,-2.033 2.396,-4.57 2.396,-7.286 10e-4,-6.773 -5.496,-12.27 -12.269,-12.27 z"
   inkscape:connector-curvature="0"
   style="stroke:#ffffff;stroke-width:5;stroke-linecap:round" /><path
   id="path17048"
   d="m 675.001,928.2195 c -6.772,0 -12.27,5.497 -12.27,12.27 0,2.716 0.902,5.253 2.396,7.286 -5.987,3.441 -10.064,9.857 -10.064,17.255 0,6.239 2.89,11.776 7.381,15.434 -9.199,3.245 -22.717,17.015 -22.717,41.316 h 70.546 c 0,-24.302 -13.518,-38.071 -22.717,-41.316 4.491,-3.657 7.381,-9.194 7.381,-15.434 0,-7.397 -4.077,-13.813 -10.064,-17.255 1.495,-2.033 2.396,-4.57 2.396,-7.286 0,-6.773 -5.496,-12.27 -12.268,-12.27 z"
   inkscape:connector-curvature="0"
   style="stroke:#ffffff;stroke-width:5;stroke-linecap:round" /><path
   id="path17050"
   d="m 824.9995,928.2195 c -6.772,0 -12.269,5.497 -12.269,12.27 0,2.716 0.901,5.253 2.396,7.286 -5.986,3.441 -10.063,9.857 -10.063,17.255 0,6.239 2.889,11.776 7.38,15.434 -9.199,3.245 -22.717,17.015 -22.717,41.316 h 70.547 c 0,-24.302 -13.518,-38.071 -22.717,-41.316 4.491,-3.657 7.38,-9.194 7.38,-15.434 0,-7.397 -4.077,-13.813 -10.063,-17.255 1.494,-2.033 2.396,-4.57 2.396,-7.286 -10e-4,-6.773 -5.497,-12.27 -12.27,-12.27 z"
   inkscape:connector-curvature="0"
   style="stroke:#ffffff;stroke-width:5;stroke-linecap:round" /><path
   id="path17052"
   d="m 975,928.2195 c -6.772,0 -12.269,5.497 -12.269,12.27 0,2.716 0.901,5.253 2.396,7.286 -5.987,3.441 -10.064,9.857 -10.064,17.255 0,6.239 2.89,11.776 7.38,15.434 -9.198,3.245 -22.716,17.015 -22.716,41.316 h 70.546 c 0,-24.302 -13.518,-38.071 -22.717,-41.316 4.491,-3.657 7.381,-9.194 7.381,-15.434 0,-7.397 -4.077,-13.813 -10.064,-17.255 1.494,-2.033 2.396,-4.57 2.396,-7.286 10e-4,-6.773 -5.497,-12.27 -12.269,-12.27 z"
   inkscape:connector-curvature="0"
   style="stroke:#ffffff;stroke-width:5;stroke-linecap:round" /><path
   id="path17054"
   d="m 1125,928.2195 c -6.772,0 -12.269,5.497 -12.269,12.27 0,2.716 0.901,5.253 2.396,7.286 -5.987,3.441 -10.064,9.857 -10.064,17.255 0,6.239 2.89,11.776 7.381,15.434 -9.199,3.245 -22.717,17.015 -22.717,41.316 h 70.546 c 0,-24.302 -13.518,-38.071 -22.717,-41.316 4.491,-3.657 7.381,-9.194 7.381,-15.434 0,-7.397 -4.077,-13.813 -10.064,-17.255 1.494,-2.033 2.396,-4.57 2.396,-7.286 0,-6.773 -5.496,-12.27 -12.269,-12.27 z"
   inkscape:connector-curvature="0"
   style="stroke:#ffffff;stroke-width:5;stroke-linecap:round" /><g
   id="g46309"
   transform="translate(259.3535,-264.378)">
	<path
   id="path46311"
   d="m -227.128,1436.206 h 85.549 v -9.705 h -85.549 v 9.096 0.609 z"
   inkscape:connector-curvature="0"
   style="fill:none;stroke:#ffffff;stroke-width:10;stroke-linejoin:round" />
	<path
   id="path46313"
   d="m -217.25,1415.526 5.106,-8.088 h 54.832 l 5.106,8.088 h -65.044 z"
   inkscape:connector-curvature="0"
   style="fill:none;stroke:#ffffff;stroke-width:5;stroke-linejoin:round" />
	<path
   id="path46315"
   d="m -217.273,1428.466 v -12.94 h 65.519 v 12.94 h -65.519 z"
   inkscape:connector-curvature="0"
   style="fill:none;stroke:#ffffff;stroke-width:10;stroke-linejoin:round" />
	<path
   id="path46317"
   d="m -211.429,1407.438 v -42.055 h 53.403 v 42.055 h -53.403 z"
   inkscape:connector-curvature="0"
   style="fill:none;stroke:#ffffff;stroke-width:10" />
	<path
   id="path46319"
   d="m -210.537,1367.258 -10.211,-8.087 72.719,-0.179 -10.212,8.088 -52.296,0.178 z"
   inkscape:connector-curvature="0"
   style="fill:none;stroke:#ffffff;stroke-width:10;stroke-linejoin:round" />
	<path
   id="path46321"
   d="m -220.748,1357.296 v -14.746 h 13.901 v 6.47 h 14.02 v -6.47 h 18.163 v 6.47 h 12.091 v -6.47 h 14.401 v 14.746 h -72.576 z"
   inkscape:connector-curvature="0"
   style="fill:none;stroke:#ffffff;stroke-width:10;stroke-linejoin:round" />
	<path
   id="path46323"
   d="m -225.792,1436.133 h 82.815 v -9.203 h -82.815 v 9.203 z"
   inkscape:connector-curvature="0"
   style="stroke:#000000;stroke-width:1.5;stroke-linejoin:round" />
	<path
   id="path46325"
   d="m -215.057,1414.659 4.601,-7.669 h 52.143 l 4.601,7.669 h -61.345 z"
   inkscape:connector-curvature="0"
   style="stroke:#000000;stroke-width:1.5;stroke-linejoin:round" />
	<path
   id="path46327"
   d="m -216.591,1426.93 v -12.271 h 64.412 v 12.271 h -64.412 z"
   inkscape:connector-curvature="0"
   style="stroke:#000000;stroke-width:1.5;stroke-linejoin:round" />
	<path
   id="path46329"
   d="m -210.456,1406.99 v -39.878 h 52.143 v 39.878 h -52.143 z"
   inkscape:connector-curvature="0"
   style="stroke:#000000;stroke-width:1.5" />
	<path
   id="path46331"
   d="m -210.456,1367.113 -9.202,-7.669 h 70.546 l -9.202,7.669 h -52.142 z"
   inkscape:connector-curvature="0"
   style="stroke:#000000;stroke-width:1.5;stroke-linejoin:round" />
	<path
   id="path46333"
   d="m -219.658,1359.444 v -15.338 h 12.269 v 6.136 h 15.336 v -6.136 h 15.336 v 6.136 h 15.336 v -6.136 h 12.269 v 15.338 h -70.546 z"
   inkscape:connector-curvature="0"
   style="stroke:#000000;stroke-width:1.5;stroke-linejoin:round" />
	<path
   id="path46335"
   d="m -216.591,1423.968 h 64.412 l 0,0"
   inkscape:connector-curvature="0"
   style="fill:none;stroke:#ffffff;stroke-width:4;stroke-linecap:round" />
	<path
   id="path46337"
   d="m -213.523,1412.055 h 58.277"
   inkscape:connector-curvature="0"
   style="fill:none;stroke:#ffffff;stroke-width:4;stroke-linecap:round" />
	<path
   id="path46339"
   d="m -210.456,1406.99 h 52.143"
   inkscape:connector-curvature="0"
   style="fill:none;stroke:#ffffff;stroke-linecap:round" />
	<path
   id="path46341"
   d="m -210.456,1367.113 h 52.143"
   inkscape:connector-curvature="0"
   style="fill:none;stroke:#ffffff;stroke-linecap:round" />
	<path
   id="path46343"
   d="m -219.658,1359.444 h 70.546"
   inkscape:connector-curvature="0"
   style="fill:none;stroke:#ffffff;stroke-width:4;stroke-linecap:round" />
</g><g
   id="g46345"
   transform="translate(1309.353,-264.378)">
	<path
   id="path46347"
   d="m -227.128,1436.206 h 85.55 v -9.705 h -85.55 v 9.096 0.609 z"
   inkscape:connector-curvature="0"
   style="fill:none;stroke:#ffffff;stroke-width:10;stroke-linejoin:round" />
	<path
   id="path46349"
   d="m -217.249,1415.526 5.105,-8.088 h 54.831 l 5.106,8.088 h -65.042 z"
   inkscape:connector-curvature="0"
   style="fill:none;stroke:#ffffff;stroke-width:5;stroke-linejoin:round" />
	<path
   id="path46351"
   d="m -217.273,1428.466 v -12.94 h 65.518 v 12.94 h -65.518 z"
   inkscape:connector-curvature="0"
   style="fill:none;stroke:#ffffff;stroke-width:10;stroke-linejoin:round" />
	<path
   id="path46353"
   d="m -211.43,1407.438 v -42.055 h 53.403 v 42.055 h -53.403 z"
   inkscape:connector-curvature="0"
   style="fill:none;stroke:#ffffff;stroke-width:10" />
	<path
   id="path46355"
   d="m -210.536,1367.258 -10.212,-8.087 72.719,-0.179 -10.212,8.088 -52.295,0.178 z"
   inkscape:connector-curvature="0"
   style="fill:none;stroke:#ffffff;stroke-width:10;stroke-linejoin:round" />
	<path
   id="path46357"
   d="m -220.748,1357.296 v -14.746 h 13.901 v 6.47 h 14.02 v -6.47 h 18.162 v 6.47 h 12.092 v -6.47 h 14.401 v 14.746 h -72.576 z"
   inkscape:connector-curvature="0"
   style="fill:none;stroke:#ffffff;stroke-width:10;stroke-linejoin:round" />
	<path
   id="path46359"
   d="m -225.792,1436.133 h 82.814 v -9.203 h -82.814 v 9.203 z"
   inkscape:connector-curvature="0"
   style="stroke:#000000;stroke-width:1.5;stroke-linejoin:round" />
	<path
   id="path46361"
   d="m -215.057,1414.659 4.601,-7.669 h 52.143 l 4.602,7.669 h -61.346 z"
   inkscape:connector-curvature="0"
   style="stroke:#000000;stroke-width:1.5;stroke-linejoin:round" />
	<path
   id="path46363"
   d="m -216.591,1426.93 v -12.271 h 64.412 v 12.271 h -64.412 z"
   inkscape:connector-curvature="0"
   style="stroke:#000000;stroke-width:1.5;stroke-linejoin:round" />
	<path
   id="path46365"
   d="m -210.456,1406.99 v -39.878 h 52.143 v 39.878 h -52.143 z"
   inkscape:connector-curvature="0"
   style="stroke:#000000;stroke-width:1.5" />
	<path
   id="path46367"
   d="m -210.456,1367.113 -9.201,-7.669 h 70.546 l -9.202,7.669 h -52.143 z"
   inkscape:connector-curvature="0"
   style="stroke:#000000;stroke-width:1.5;stroke-linejoin:round" />
	<path
   id="path46369"
   d="m -219.657,1359.444 v -15.338 h 12.269 v 6.136 h 15.336 v -6.136 h 15.336 v 6.136 h 15.337 v -6.136 h 12.269 v 15.338 h -70.547 z"
   inkscape:connector-curvature="0"
   style="stroke:#000000;stroke-width:1.5;stroke-linejoin:round" />
	<path
   id="path46371"
   d="m -216.591,1423.968 h 64.412 l 0,0"
   inkscape:connector-curvature="0"
   style="fill:none;stroke:#ffffff;stroke-width:4;stroke-linecap:round" />
	<path
   id="path46373"
   d="m -213.523,1412.055 h 58.277"
   inkscape:connector-curvature="0"
   style="fill:none;stroke:#ffffff;stroke-width:4;stroke-linecap:round" />
	<path
   id="path46375"
   d="m -210.456,1406.99 h 52.143"
   inkscape:connector-curvature="0"
   style="fill:none;stroke:#ffffff;stroke-linecap:round" />
	<path
   id="path46377"
   d="m -210.456,1367.113 h 52.143"
   inkscape:connector-curvature="0"
   style="fill:none;stroke:#ffffff;stroke-linecap:round" />
	<path
   id="path46379"
   d="m -219.657,1359.444 h 70.546"
   inkscape:connector-curvature="0"
   style="fill:none;stroke:#ffffff;stroke-width:4;stroke-linecap:round" />
</g><g
   id="g60673"
   transform="translate(-171.98984,-1803.798)">
	<path
   id="path60675"
   d="m 395.847,1836.29 c 37.531,4.162 54.641,26.149 53.007,94.792 h -75.886 c -0.893,-36.918 30.719,-21.425 24.182,-68.821"
   inkscape:connector-curvature="0" />
	<path
   id="path60677"
   d="m 405.986,1863.176 c 1.371,9.71 -16.586,24.578 -25.311,30.02 -10.697,6.671 -10.052,14.485 -17.828,13.342 -4.119,-5.333 0.434,-5.904 -3.566,-3.335 -3.565,0 -14.273,3.335 -14.262,-13.342 0,-6.671 18.894,-40.026 18.894,-40.026 0,0 5.296,-6.345 5.703,-11.674 -2.588,-3.317 -1.068,-6.671 -1.068,-10.006 3.565,-3.336 12.661,8.339 12.661,8.339 h 4.274 c 0,0 3.68,-6.645 9.807,-10.007 3.566,0 3.566,10.007 3.566,10.007"
   inkscape:connector-curvature="0" />
	<path
   id="path60679"
   d="m 354.993,1886.955 c 0,0.902 -0.731,1.634 -1.634,1.634 -0.902,0 -1.634,-0.732 -1.634,-1.634 0,-0.903 0.731,-1.634 1.634,-1.634 0.903,0 1.634,0.731 1.634,1.634 z"
   inkscape:connector-curvature="0"
   style="fill:#f2f2f2" />
	<path
   id="path60681"
   d="m 372.75,1855.085 c -1.354,2.345 -3.085,3.88 -3.867,3.429 -0.781,-0.452 -0.317,-2.718 1.036,-5.063 1.354,-2.345 3.085,-3.88 3.867,-3.429 0.781,0.451 0.318,2.718 -1.036,5.063 z"
   inkscape:connector-curvature="0"
   style="fill:#f2f2f2" />
	<path
   id="path60683"
   d="m 404.181,1837.598 -0.98,3.596 1.798,0.327 c 10.136,1.56 20.667,7.303 28.025,21.226 7.359,13.923 9.551,35.835 7.926,68.335 l -0.164,0.027 h 5.72 v -0.027 c 1.644,-32.873 -2.865,-55.088 -10.622,-69.766 -7.757,-14.678 -18.92,-21.682 -30.027,-23.391 l -1.676,-0.327 z"
   inkscape:connector-curvature="0" />
	<path
   id="path60685"
   d="m 396.952,1839.187 c 32.206,3.068 50.609,24.541 49.076,88.959 h -70.546 c 0,-27.608 30.672,-19.939 24.538,-64.419"
   inkscape:connector-curvature="0"
   style="fill:#ffffff;stroke:#000000;stroke-linecap:round" />
	<path
   id="path60687"
   d="m 403.086,1863.728 c 1.179,8.931 -17.032,22.604 -24.538,27.608 -9.202,6.135 -8.647,13.322 -15.336,12.271 -3.195,-2.896 4.335,-9.318 0,-9.203 -3.067,0 0.575,3.778 -3.067,6.135 -3.067,0 -12.278,3.068 -12.269,-12.27 0,-6.135 18.403,-36.811 18.403,-36.811 0,0 5.784,-5.835 6.134,-10.737 -2.227,-3.05 -1.534,-6.135 -1.534,-9.203 3.067,-3.067 9.202,7.669 9.202,7.669 h 6.135 c 0,0 2.398,-6.11 7.668,-9.203 3.067,0 3.067,9.203 3.067,9.203"
   inkscape:connector-curvature="0"
   style="fill:#ffffff;stroke:#000000;stroke-linecap:round;stroke-linejoin:round" />
	<path
   id="path60689"
   d="m 358.612,1886.735 c 0,0.847 -0.687,1.534 -1.534,1.534 -0.847,0 -1.534,-0.687 -1.534,-1.534 0,-0.847 0.687,-1.534 1.534,-1.534 0.847,0 1.534,0.686 1.534,1.534 z"
   inkscape:connector-curvature="0"
   style="stroke:#000000;stroke-width:0.32600001;stroke-linecap:round;stroke-linejoin:round" />
	<path
   id="path60691"
   d="m 375.276,1856.826 c -1.271,2.201 -2.895,3.642 -3.628,3.218 -0.733,-0.423 -0.298,-2.551 0.972,-4.751 1.27,-2.2 2.895,-3.642 3.628,-3.218 0.734,0.423 0.298,2.55 -0.972,4.751 z"
   inkscape:connector-curvature="0"
   style="stroke:#000000;stroke-width:0.32600001;stroke-linecap:round;stroke-linejoin:round" />
	<path
   id="path60693"
   d="m 403.845,1840.414 -0.92,3.375 1.687,0.307 c 9.513,1.464 19.396,6.854 26.301,19.92 6.905,13.066 9.892,32.666 8.367,63.167 l -0.153,1.534 h 5.368 v -1.534 c 1.542,-30.85 -3.617,-50.734 -10.897,-64.509 -7.28,-13.774 -17.756,-20.348 -28.18,-21.952 l -1.573,-0.308 z"
   inkscape:connector-curvature="0" />
</g><g
   id="g60695"
   transform="translate(578.00966,-1803.798)">
	<path
   id="path60697"
   d="m 395.847,1836.29 c 37.531,4.162 54.642,26.149 53.008,94.792 h -75.886 c -0.893,-36.918 30.719,-21.425 24.183,-68.821"
   inkscape:connector-curvature="0" />
	<path
   id="path60699"
   d="m 405.986,1863.176 c 1.371,9.71 -16.586,24.578 -25.311,30.02 -10.697,6.671 -10.053,14.485 -17.828,13.342 -4.119,-5.333 0.434,-5.904 -3.566,-3.335 -3.565,0 -14.273,3.335 -14.262,-13.342 0,-6.671 18.894,-40.026 18.894,-40.026 0,0 5.296,-6.345 5.702,-11.674 -2.588,-3.317 -1.068,-6.671 -1.068,-10.006 3.565,-3.336 12.661,8.339 12.661,8.339 h 4.274 c 0,0 3.681,-6.645 9.807,-10.007 3.566,0 3.566,10.007 3.566,10.007"
   inkscape:connector-curvature="0" />
	<path
   id="path60701"
   d="m 354.993,1886.955 c 0,0.902 -0.731,1.634 -1.635,1.634 -0.902,0 -1.634,-0.732 -1.634,-1.634 0,-0.903 0.731,-1.634 1.634,-1.634 0.904,0 1.635,0.731 1.635,1.634 z"
   inkscape:connector-curvature="0"
   style="fill:#f2f2f2" />
	<path
   id="path60703"
   d="m 372.75,1855.085 c -1.354,2.345 -3.085,3.88 -3.866,3.429 -0.782,-0.452 -0.318,-2.718 1.035,-5.063 1.354,-2.345 3.085,-3.88 3.867,-3.429 0.782,0.451 0.318,2.718 -1.036,5.063 z"
   inkscape:connector-curvature="0"
   style="fill:#f2f2f2" />
	<path
   id="path60705"
   d="m 404.181,1837.598 -0.98,3.596 1.798,0.327 c 10.137,1.56 20.667,7.303 28.025,21.226 7.359,13.923 9.551,35.835 7.926,68.335 l -0.163,0.027 h 5.72 v -0.027 c 1.644,-32.873 -2.865,-55.088 -10.622,-69.766 -7.758,-14.678 -18.92,-21.682 -30.027,-23.391 l -1.677,-0.327 z"
   inkscape:connector-curvature="0" />
	<path
   id="path60707"
   d="m 396.952,1839.187 c 32.205,3.068 50.609,24.541 49.075,88.959 h -70.546 c 0,-27.608 30.672,-19.939 24.537,-64.419"
   inkscape:connector-curvature="0"
   style="fill:#ffffff;stroke:#000000;stroke-linecap:round" />
	<path
   id="path60709"
   d="m 403.086,1863.728 c 1.18,8.931 -17.032,22.604 -24.538,27.608 -9.201,6.135 -8.646,13.322 -15.336,12.271 -3.195,-2.896 4.336,-9.318 0,-9.203 -3.067,0 0.575,3.778 -3.067,6.135 -3.066,0 -12.278,3.068 -12.269,-12.27 0,-6.135 18.403,-36.811 18.403,-36.811 0,0 5.784,-5.835 6.135,-10.737 -2.228,-3.05 -1.534,-6.135 -1.534,-9.203 3.067,-3.067 9.202,7.669 9.202,7.669 h 6.135 c 0,0 2.397,-6.11 7.668,-9.203 3.067,0 3.067,9.203 3.067,9.203"
   inkscape:connector-curvature="0"
   style="fill:#ffffff;stroke:#000000;stroke-linecap:round;stroke-linejoin:round" />
	<path
   id="path60711"
   d="m 358.612,1886.735 c 0,0.847 -0.687,1.534 -1.533,1.534 -0.848,0 -1.534,-0.687 -1.534,-1.534 0,-0.847 0.687,-1.534 1.534,-1.534 0.846,0 1.533,0.686 1.533,1.534 z"
   inkscape:connector-curvature="0"
   style="stroke:#000000;stroke-width:0.32600001;stroke-linecap:round;stroke-linejoin:round" />
	<path
   id="path60713"
   d="m 375.276,1856.826 c -1.271,2.201 -2.895,3.642 -3.628,3.218 -0.734,-0.423 -0.299,-2.551 0.972,-4.751 1.271,-2.2 2.896,-3.642 3.629,-3.218 0.733,0.423 0.297,2.55 -0.973,4.751 z"
   inkscape:connector-curvature="0"
   style="stroke:#000000;stroke-width:0.32600001;stroke-linecap:round;stroke-linejoin:round" />
	<path
   id="path60715"
   d="m 403.845,1840.414 -0.92,3.375 1.687,0.307 c 9.513,1.464 19.396,6.854 26.302,19.92 6.905,13.066 9.892,32.666 8.366,63.167 l -0.153,1.534 h 5.368 v -1.534 c 1.542,-30.85 -3.617,-50.734 -10.897,-64.509 -7.28,-13.774 -17.756,-20.348 -28.18,-21.952 l -1.573,-0.308 z"
   inkscape:connector-curvature="0" />
</g><g
   id="g49858"
   transform="translate(742.1436,-755.001)">
	<path
   id="path48825"
   d="m 231.714,1837.494 c 37.531,4.161 54.642,26.149 53.007,94.791 h -75.885 c -0.894,-36.918 30.719,-21.425 24.182,-68.82"
   inkscape:connector-curvature="0"
   style="fill:#ffffff" />
	<path
   id="path48827"
   d="m 241.853,1864.379 c 1.37,9.711 -16.586,24.578 -25.312,30.02 -10.696,6.671 -10.052,14.486 -17.828,13.343 -4.118,-5.333 0.435,-5.904 -3.565,-3.336 -3.565,0 -14.273,3.336 -14.263,-13.342 0,-6.672 18.895,-40.026 18.895,-40.026 0,0 5.295,-6.345 5.702,-11.675 -2.589,-3.316 -1.068,-6.671 -1.068,-10.007 3.565,-3.335 12.661,8.339 12.661,8.339 h 4.274 c 0,0 3.681,-6.644 9.807,-10.006 3.565,0 3.565,10.006 3.565,10.006"
   inkscape:connector-curvature="0"
   style="fill:#ffffff" />
	<path
   id="path48829"
   d="m 190.861,1888.158 c 0,0.902 -0.732,1.635 -1.635,1.635 -0.903,0 -1.634,-0.732 -1.634,-1.635 0,-0.903 0.731,-1.634 1.634,-1.634 0.903,0 1.635,0.732 1.635,1.634 z"
   inkscape:connector-curvature="0"
   style="fill:#f2f2f2" />
	<path
   id="path48831"
   d="m 208.618,1856.289 c -1.354,2.345 -3.085,3.88 -3.867,3.429 -0.781,-0.451 -0.317,-2.718 1.036,-5.063 1.354,-2.345 3.085,-3.88 3.866,-3.429 0.782,0.451 0.318,2.717 -1.035,5.063 z"
   inkscape:connector-curvature="0"
   style="fill:#f2f2f2" />
	<path
   id="path48833"
   d="m 240.048,1838.802 -0.98,3.596 1.798,0.326 c 10.137,1.56 20.667,7.303 28.025,21.227 7.358,13.923 9.551,35.834 7.926,68.335 l -0.163,0.027 h 5.72 v -0.027 c 1.643,-32.872 -2.865,-55.088 -10.622,-69.766 -7.758,-14.678 -18.921,-21.683 -30.028,-23.392 l -1.676,-0.326 z"
   inkscape:connector-curvature="0"
   style="fill:#ffffff" />
	<path
   id="path48837"
   d="m 232.819,1840.39 c 32.206,3.067 50.609,24.541 49.076,88.96 h -70.547 c 0,-27.608 30.673,-19.939 24.538,-64.419"
   inkscape:connector-curvature="0"
   style="stroke:#000000;stroke-linecap:round" />
	<path
   id="path48839"
   d="m 238.954,1864.931 c 1.18,8.931 -17.032,22.604 -24.538,27.607 -9.201,6.136 -8.646,13.322 -15.336,12.271 -3.195,-2.896 4.335,-9.318 0,-9.203 -3.067,0 0.575,3.779 -3.067,6.136 -3.067,0 -12.278,3.067 -12.269,-12.271 0,-6.135 18.403,-36.811 18.403,-36.811 0,0 5.784,-5.835 6.135,-10.736 -2.228,-3.051 -1.534,-6.135 -1.534,-9.203 3.067,-3.067 9.202,7.669 9.202,7.669 h 6.134 c 0,0 2.398,-6.11 7.669,-9.202 3.066,0 3.066,9.202 3.066,9.202"
   inkscape:connector-curvature="0"
   style="stroke:#000000;stroke-linecap:round;stroke-linejoin:round" />
	<path
   id="path48841"
   d="m 194.479,1887.938 c 0,0.847 -0.687,1.533 -1.534,1.533 -0.847,0 -1.533,-0.687 -1.533,-1.533 0,-0.848 0.687,-1.534 1.533,-1.534 0.847,0 1.534,0.687 1.534,1.534 z"
   inkscape:connector-curvature="0"
   style="fill:#ffffff;stroke:#ffffff;stroke-width:0.32600001;stroke-linecap:round;stroke-linejoin:round" />
	<path
   id="path48843"
   d="m 211.143,1858.029 c -1.271,2.201 -2.895,3.642 -3.629,3.218 -0.733,-0.423 -0.298,-2.551 0.973,-4.751 1.271,-2.201 2.896,-3.642 3.629,-3.219 0.733,0.424 0.298,2.552 -0.973,4.752 z"
   inkscape:connector-curvature="0"
   style="fill:#ffffff;stroke:#ffffff;stroke-width:0.32600001;stroke-linecap:round;stroke-linejoin:round" />
	<path
   id="path48845"
   d="m 239.712,1841.618 -0.921,3.374 1.688,0.307 c 9.513,1.464 19.396,6.854 26.302,19.92 6.905,13.066 9.892,32.666 8.366,63.167 l -0.153,1.534 h 5.367 v -1.534 c 1.543,-30.85 -3.616,-50.734 -10.896,-64.509 -7.28,-13.775 -17.756,-20.349 -28.181,-21.952 l -1.572,-0.307 z"
   inkscape:connector-curvature="0"
   style="fill:#ffffff" />
</g><g
   id="g60728"
   transform="translate(-7.8563427,-755.001)">
	<path
   id="path60730"
   d="m 231.714,1837.494 c 37.531,4.161 54.641,26.149 53.007,94.791 h -75.885 c -0.893,-36.918 30.719,-21.425 24.182,-68.82"
   inkscape:connector-curvature="0"
   style="fill:#ffffff" />
	<path
   id="path60732"
   d="m 241.853,1864.379 c 1.371,9.711 -16.585,24.578 -25.311,30.02 -10.697,6.671 -10.052,14.486 -17.828,13.343 -4.119,-5.333 0.434,-5.904 -3.566,-3.336 -3.565,0 -14.274,3.336 -14.263,-13.342 0,-6.672 18.894,-40.026 18.894,-40.026 0,0 5.296,-6.345 5.703,-11.675 -2.589,-3.316 -1.068,-6.671 -1.068,-10.007 3.565,-3.335 12.661,8.339 12.661,8.339 h 4.274 c 0,0 3.681,-6.644 9.807,-10.006 3.565,0 3.565,10.006 3.565,10.006"
   inkscape:connector-curvature="0"
   style="fill:#ffffff" />
	<path
   id="path60734"
   d="m 190.86,1888.158 c 0,0.902 -0.732,1.635 -1.634,1.635 -0.902,0 -1.634,-0.732 -1.634,-1.635 0,-0.903 0.732,-1.634 1.634,-1.634 0.902,0 1.634,0.732 1.634,1.634 z"
   inkscape:connector-curvature="0"
   style="fill:#f2f2f2" />
	<path
   id="path60736"
   d="m 208.617,1856.289 c -1.354,2.345 -3.085,3.88 -3.867,3.429 -0.782,-0.451 -0.318,-2.718 1.036,-5.063 1.354,-2.345 3.085,-3.88 3.866,-3.429 0.783,0.451 0.319,2.717 -1.035,5.063 z"
   inkscape:connector-curvature="0"
   style="fill:#f2f2f2" />
	<path
   id="path60738"
   d="m 240.048,1838.802 -0.98,3.596 1.797,0.326 c 10.137,1.56 20.667,7.303 28.026,21.227 7.358,13.923 9.551,35.834 7.926,68.335 l -0.164,0.027 h 5.72 v -0.027 c 1.644,-32.872 -2.865,-55.088 -10.622,-69.766 -7.757,-14.678 -18.92,-21.683 -30.028,-23.392 l -1.675,-0.326 z"
   inkscape:connector-curvature="0"
   style="fill:#ffffff" />
	<path
   id="path60740"
   d="m 232.819,1840.39 c 32.206,3.067 50.609,24.541 49.076,88.96 h -70.546 c 0,-27.608 30.672,-19.939 24.538,-64.419"
   inkscape:connector-curvature="0"
   style="stroke:#000000;stroke-linecap:round" />
	<path
   id="path60742"
   d="m 238.954,1864.931 c 1.179,8.931 -17.032,22.604 -24.538,27.607 -9.202,6.136 -8.647,13.322 -15.336,12.271 -3.195,-2.896 4.335,-9.318 0,-9.203 -3.067,0 0.575,3.779 -3.067,6.136 -3.067,0 -12.278,3.067 -12.269,-12.271 0,-6.135 18.404,-36.811 18.404,-36.811 0,0 5.784,-5.835 6.134,-10.736 -2.227,-3.051 -1.534,-6.135 -1.534,-9.203 3.067,-3.067 9.202,7.669 9.202,7.669 h 6.134 c 0,0 2.398,-6.11 7.668,-9.202 3.067,0 3.067,9.202 3.067,9.202"
   inkscape:connector-curvature="0"
   style="stroke:#000000;stroke-linecap:round;stroke-linejoin:round" />
	<path
   id="path60744"
   d="m 194.479,1887.938 c 0,0.847 -0.687,1.533 -1.534,1.533 -0.847,0 -1.533,-0.687 -1.533,-1.533 0,-0.848 0.687,-1.534 1.533,-1.534 0.847,0 1.534,0.687 1.534,1.534 z"
   inkscape:connector-curvature="0"
   style="fill:#ffffff;stroke:#ffffff;stroke-width:0.32600001;stroke-linecap:round;stroke-linejoin:round" />
	<path
   id="path60746"
   d="m 211.143,1858.029 c -1.271,2.201 -2.895,3.642 -3.629,3.218 -0.733,-0.423 -0.298,-2.551 0.973,-4.751 1.271,-2.201 2.895,-3.642 3.628,-3.219 0.734,0.424 0.299,2.552 -0.972,4.752 z"
   inkscape:connector-curvature="0"
   style="fill:#ffffff;stroke:#ffffff;stroke-width:0.32600001;stroke-linecap:round;stroke-linejoin:round" />
	<path
   id="path60748"
   d="m 239.712,1841.618 -0.92,3.374 1.687,0.307 c 9.513,1.464 19.396,6.854 26.302,19.92 6.906,13.066 9.892,32.666 8.367,63.167 l -0.153,1.534 h 5.367 v -1.534 c 1.542,-30.85 -3.617,-50.734 -10.897,-64.509 -7.28,-13.774 -17.756,-20.349 -28.18,-21.952 l -1.573,-0.307 z"
   inkscape:connector-curvature="0"
   style="fill:#ffffff" />
</g><g
   id="g63721"
   transform="translate(477.62423,1004.6622)">
	<g
   id="g60798"
   transform="matrix(3.4156897,0,0,3.3289941,-1005.3432,-2662.945)">
		<path
   id="path60800"
   d="m 250.786,848.362 c 2.471,-1.234 10.115,0.127 13.5,-2.303 3.385,2.431 11.125,0.963 13.352,2.303 2.202,1.325 1.942,0.902 2.556,2.589 -0.677,0.972 -1.054,1.593 -2.408,1.107 -3.385,-0.972 -10.115,0.458 -13.5,-1 -3.385,1.459 -10.115,0.028 -13.5,1 -1.354,0.486 -1.731,-0.21 -2.408,-1.183 1.353,-1.945 0.057,-1.34 2.408,-2.513 z"
   inkscape:connector-curvature="0"
   style="fill:#ffffff;stroke:#ffffff;stroke-width:0.44479999;stroke-linejoin:round" />
		<path
   id="path60802"
   d="m 256.786,845.557 c 2.5,2.5 12.5,2.5 15,0 0.5,-1.5 0,-2 0,-2 0,-2.5 -2.062,-4 -2.062,-4 5.5,-1.5 5.562,-11.5 -5.438,-15.5 -11,4 -10.722,14.152 -5.222,15.652 0,0 -2.352,0.969 -2.352,3.469 0,0 -0.426,0.879 0.074,2.379 z"
   inkscape:connector-curvature="0"
   style="fill:#ffffff;stroke:#ffffff;stroke-width:0.44479999;stroke-linejoin:round" />
		<path
   id="path60804"
   d="m 267.311,822.841 c 0,1.636 -1.402,2.962 -3.132,2.962 -1.73,0 -3.132,-1.326 -3.132,-2.962 0,-1.636 1.402,-2.962 3.132,-2.962 1.729,10e-4 3.132,1.327 3.132,2.962 z"
   inkscape:connector-curvature="0"
   style="fill:#ffffff;stroke:#ffffff;stroke-width:0.3651;stroke-linejoin:round" />
		<path
   id="path60806"
   d="m 259.286,839.557 h 10"
   inkscape:connector-curvature="0"
   style="fill:#ff8bff;stroke:#ff78ff;stroke-width:0.44479999;stroke-linecap:round" />
		<path
   id="path60810"
   d="m 264.285,829.057 v 5"
   inkscape:connector-curvature="0"
   style="fill:#ff8bff;stroke:#ff78ff;stroke-width:0.44479999;stroke-linecap:round" />
		<path
   id="path60812"
   d="m 261.786,831.557 h 5"
   inkscape:connector-curvature="0"
   style="fill:#ff8bff;stroke:#ff78ff;stroke-width:0.44479999;stroke-linecap:round" />
	</g>
	<g
   id="g60782"
   transform="matrix(3.067229,0,0,3.067558,-913.48194,-2443.602)">
		<path
   id="path60784"
   d="m 250.786,849.557 c 3.385,-0.972 10.115,0.431 13.5,-2 3.385,2.431 10.115,1.028 13.5,2 0,0 1.646,0.542 3,2 -0.677,0.972 -1.646,0.986 -3,0.5 -3.385,-0.973 -10.114,0.458 -13.5,-1 -3.385,1.458 -10.115,0.027 -13.5,1 -1.354,0.486 -2.323,0.472 -3,-0.5 1.354,-1.944 3,-2 3,-2 z"
   inkscape:connector-curvature="0"
   style="stroke:#000000;stroke-width:0.48899999;stroke-linejoin:round" />
		<path
   id="path60786"
   d="m 256.786,845.557 c 2.5,2.5 12.5,2.5 15,0 0.5,-1.5 0,-2 0,-2 0,-2.5 -2.5,-4 -2.5,-4 5.5,-1.5 6,-11.5 -5,-15.5 -11,4 -10.5,14 -5,15.5 0,0 -2.5,1.5 -2.5,4 0,0 -0.5,0.5 0,2 z"
   inkscape:connector-curvature="0"
   style="stroke:#000000;stroke-width:0.48899999;stroke-linejoin:round" />
		<path
   id="path60788"
   d="m 266.786,821.557 c 0,1.381 -1.119,2.5 -2.5,2.5 -1.381,0 -2.5,-1.119 -2.5,-2.5 0,-1.381 1.119,-2.5 2.5,-2.5 1.38,0 2.5,1.12 2.5,2.5 z"
   inkscape:connector-curvature="0"
   style="stroke:#000000;stroke-width:0.48899999;stroke-linejoin:round" />
		<path
   id="path60790"
   d="m 259.286,839.557 h 10"
   inkscape:connector-curvature="0"
   style="fill:none;stroke:#ffffff;stroke-width:0.48899999;stroke-linecap:round" />
		<path
   id="path60792"
   d="m 256.786,843.557 h 15"
   inkscape:connector-curvature="0"
   style="fill:none;stroke:#ffffff;stroke-width:0.48899999;stroke-linecap:round" />
		<path
   id="path60794"
   d="m 264.286,829.057 v 5"
   inkscape:connector-curvature="0"
   style="fill:none;stroke:#ffffff;stroke-width:0.48899999;stroke-linecap:round" />
		<path
   id="path60796"
   d="m 261.786,831.557 h 5"
   inkscape:connector-curvature="0"
   style="fill:none;stroke:#ffffff;stroke-width:0.48899999;stroke-linecap:round" />
	</g>
</g><g
   id="g63818"
   transform="translate(927.62423,1004.6605)">
	<g
   id="g63820"
   transform="matrix(3.4156897,0,0,3.3289941,-1005.3432,-2662.945)">
		<path
   id="path63822"
   d="m 250.786,848.362 c 2.471,-1.234 10.115,0.127 13.5,-2.303 3.385,2.431 11.125,0.963 13.352,2.303 2.202,1.325 1.942,0.902 2.556,2.589 -0.677,0.972 -1.054,1.593 -2.408,1.107 -3.385,-0.972 -10.115,0.458 -13.5,-1 -3.385,1.459 -10.115,0.028 -13.5,1 -1.354,0.486 -1.731,-0.21 -2.408,-1.183 1.353,-1.945 0.057,-1.34 2.408,-2.513 z"
   inkscape:connector-curvature="0"
   style="fill:#ffffff;stroke:#ffffff;stroke-width:0.44479999;stroke-linejoin:round" />
		<path
   id="path63824"
   d="m 256.786,845.557 c 2.5,2.5 12.5,2.5 15,0 0.5,-1.5 0,-2 0,-2 0,-2.5 -2.063,-4 -2.063,-4 5.5,-1.5 5.563,-11.5 -5.438,-15.5 -11,4 -10.722,14.152 -5.222,15.652 0,0 -2.352,0.969 -2.352,3.469 10e-4,0 -0.425,0.879 0.075,2.379 z"
   inkscape:connector-curvature="0"
   style="fill:#ffffff;stroke:#ffffff;stroke-width:0.44479999;stroke-linejoin:round" />
		<path
   id="path63826"
   d="m 267.311,822.842 c 0,1.636 -1.402,2.962 -3.132,2.962 -1.73,0 -3.132,-1.326 -3.132,-2.962 0,-1.636 1.402,-2.962 3.132,-2.962 1.729,0 3.132,1.326 3.132,2.962 z"
   inkscape:connector-curvature="0"
   style="fill:#ffffff;stroke:#ffffff;stroke-width:0.3651;stroke-linejoin:round" />
		<path
   id="path63828"
   d="m 259.286,839.557 h 10"
   inkscape:connector-curvature="0"
   style="fill:#ff8bff;stroke:#ff78ff;stroke-width:0.44479999;stroke-linecap:round" />
		<path
   id="path63830"
   d="m 264.286,829.057 v 5"
   inkscape:connector-curvature="0"
   style="fill:#ff8bff;stroke:#ff78ff;stroke-width:0.44479999;stroke-linecap:round" />
		<path
   id="path63832"
   d="m 261.786,831.557 h 5"
   inkscape:connector-curvature="0"
   style="fill:#ff8bff;stroke:#ff78ff;stroke-width:0.44479999;stroke-linecap:round" />
	</g>
	<g
   id="g63834"
   transform="matrix(3.067229,0,0,3.067558,-913.48194,-2443.602)">
		<path
   id="path63836"
   d="m 250.786,849.557 c 3.385,-0.972 10.114,0.431 13.5,-2 3.385,2.431 10.115,1.028 13.5,2 0,0 1.646,0.542 3,2 -0.677,0.972 -1.646,0.986 -3,0.5 -3.385,-0.973 -10.115,0.458 -13.5,-1 -3.385,1.458 -10.115,0.027 -13.5,1 -1.354,0.486 -2.323,0.472 -3,-0.5 1.354,-1.944 3,-2 3,-2 z"
   inkscape:connector-curvature="0"
   style="stroke:#000000;stroke-width:0.48899999;stroke-linejoin:round" />
		<path
   id="path63838"
   d="m 256.785,845.557 c 2.5,2.5 12.5,2.5 15,0 0.5,-1.5 0,-2 0,-2 0,-2.5 -2.5,-4 -2.5,-4 5.5,-1.5 6,-11.5 -5,-15.5 -11,4 -10.5,14 -5,15.5 0,0 -2.5,1.5 -2.5,4 0,0 -0.499,0.5 0,2 z"
   inkscape:connector-curvature="0"
   style="stroke:#000000;stroke-width:0.48899999;stroke-linejoin:round" />
		<path
   id="path63840"
   d="m 266.786,821.557 c 0,1.381 -1.119,2.5 -2.5,2.5 -1.381,0 -2.5,-1.119 -2.5,-2.5 0,-1.381 1.119,-2.5 2.5,-2.5 1.38,0 2.5,1.12 2.5,2.5 z"
   inkscape:connector-curvature="0"
   style="stroke:#000000;stroke-width:0.48899999;stroke-linejoin:round" />
		<path
   id="path63842"
   d="m 259.286,839.557 h 10"
   inkscape:connector-curvature="0"
   style="fill:none;stroke:#ffffff;stroke-width:0.48899999;stroke-linecap:round" />
		<path
   id="path63844"
   d="m 256.785,843.557 h 15"
   inkscape:connector-curvature="0"
   style="fill:none;stroke:#ffffff;stroke-width:0.48899999;stroke-linecap:round" />
		<path
   id="path63846"
   d="m 264.286,829.057 v 5"
   inkscape:connector-curvature="0"
   style="fill:none;stroke:#ffffff;stroke-width:0.48899999;stroke-linecap:round" />
		<path
   id="path63848"
   d="m 261.786,831.557 h 5"
   inkscape:connector-curvature="0"
   style="fill:none;stroke:#ffffff;stroke-width:0.48899999;stroke-linecap:round" />
	</g>
</g><g
   id="g67023"
   transform="translate(-877.827,747.60755)">
	<path
   id="path67025"
   d="m 1510.813,344.529 c 0,4.852 -3.934,8.784 -8.783,8.784 -4.852,0 -8.783,-3.933 -8.783,-8.784 0,-4.851 3.932,-8.783 8.783,-8.783 4.849,-10e-4 8.783,3.932 8.783,8.783 z"
   inkscape:connector-curvature="0"
   style="fill:#ffffff;stroke:#ffffff;stroke-width:0.2277;stroke-linecap:round;stroke-linejoin:round" />
	<path
   id="path67027"
   d="m 1535.635,333.514 c 0,4.852 -3.932,8.784 -8.781,8.784 -4.852,0 -8.783,-3.933 -8.783,-8.784 0,-4.851 3.932,-8.783 8.783,-8.783 4.849,0 8.781,3.932 8.781,8.783 z"
   inkscape:connector-curvature="0"
   style="fill:#ffffff;stroke:#ffffff;stroke-width:0.2277;stroke-linecap:round;stroke-linejoin:round" />
	<path
   id="path67029"
   d="m 1561.647,330.737 c 0,4.851 -3.932,8.783 -8.781,8.783 -4.852,0 -8.783,-3.933 -8.783,-8.783 0,-4.852 3.932,-8.784 8.783,-8.784 4.849,-10e-4 8.781,3.932 8.781,8.784 z"
   inkscape:connector-curvature="0"
   style="fill:#ffffff;stroke:#ffffff;stroke-width:0.2277;stroke-linecap:round;stroke-linejoin:round" />
	<path
   id="path67031"
   d="m 1587.911,335.787 c 0,4.851 -3.932,8.783 -8.781,8.783 -4.852,0 -8.783,-3.933 -8.783,-8.783 0,-4.852 3.932,-8.784 8.783,-8.784 4.849,0 8.781,3.933 8.781,8.784 z"
   inkscape:connector-curvature="0"
   style="fill:#ffffff;stroke:#ffffff;stroke-width:0.2277;stroke-linecap:round;stroke-linejoin:round" />
	<path
   id="path67033"
   d="m 1507.186,384.802 c 29.277,-5.167 70.566,-5.167 91.234,0 l 5.625,-44.874 -22.09,32.843 -1.012,-42.42 -18.186,43.476 -10.082,-49.4 -9.828,48.643 -18.188,-43.683 -0.252,46.163 -22.092,-33.601 4.871,42.853 z"
   inkscape:connector-curvature="0"
   style="fill:#ffffff;stroke:#ffffff;stroke-width:1;stroke-linejoin:round" />
	<path
   id="path67035"
   d="m 1507.186,384.802 c 0,6.89 4.156,7.647 7.602,14.537 3.443,5.167 4.455,2.688 2.732,11.3 -5.168,3.444 -5.168,8.611 -5.168,8.611 -5.166,5.168 1.723,10.612 1.723,10.612 22.389,3.445 54.814,3.445 77.203,0 0,0 5.166,-5.444 0,-10.612 0,0 1.723,-5.167 -3.443,-8.611 -1.723,-8.612 0.297,-6.891 3.742,-12.058 3.443,-6.89 6.59,-6.89 6.59,-13.779 -29.278,-5.167 -61.704,-5.167 -90.981,0 z"
   inkscape:connector-curvature="0"
   style="fill:#ffffff;stroke:#ffffff;stroke-width:1;stroke-linejoin:round" />
	<path
   id="path67037"
   d="m 1612.407,344.373 c 0,4.852 -3.932,8.784 -8.781,8.784 -4.852,0 -8.783,-3.933 -8.783,-8.784 0,-4.851 3.932,-8.783 8.783,-8.783 4.849,0 8.781,3.932 8.781,8.783 z"
   inkscape:connector-curvature="0"
   style="fill:#ffffff;stroke:#ffffff;stroke-width:0.2277;stroke-linecap:round;stroke-linejoin:round" />
	<g
   id="g67039"
   transform="matrix(3.067229,0,0,3.067558,-1332.787,-2735.3764)">
		<path
   id="path67041"
   d="m 926.332,1004.07 c 0,1.105 -0.895,2 -2,2 -1.105,0 -2,-0.895 -2,-2 0,-1.105 0.895,-2 2,-2 1.105,0 2,0.895 2,2 z"
   inkscape:connector-curvature="0"
   style="stroke:#000000;stroke-width:0.32600001;stroke-linecap:round;stroke-linejoin:round" />
		<path
   id="path67043"
   d="m 942.832,999.57 c 0,1.104 -0.895,2 -2,2 -1.105,0 -2,-0.896 -2,-2 0,-1.105 0.895,-2 2,-2 1.105,0 2,0.895 2,2 z"
   inkscape:connector-curvature="0"
   style="stroke:#000000;stroke-width:0.32600001;stroke-linecap:round;stroke-linejoin:round" />
		<path
   id="path67045"
   d="m 959.332,1004.07 c 0,1.105 -0.895,2 -2,2 -1.105,0 -2,-0.895 -2,-2 0,-1.105 0.895,-2 2,-2 1.105,0 2,0.895 2,2 z"
   inkscape:connector-curvature="0"
   style="stroke:#000000;stroke-width:0.32600001;stroke-linecap:round;stroke-linejoin:round" />
		<path
   id="path67047"
   d="m 934.332,1000.57 c 0,1.105 -0.895,2 -2,2 -1.104,0 -2,-0.895 -2,-2 0,-1.105 0.896,-2 2,-2 1.104,0 2,0.895 2,2 z"
   inkscape:connector-curvature="0"
   style="stroke:#000000;stroke-width:0.32600001;stroke-linecap:round;stroke-linejoin:round" />
		<path
   id="path67049"
   d="m 951.331,1001.07 c 0,1.105 -0.895,2 -1.999,2 -1.105,0 -2,-0.896 -2,-2 0,-1.104 0.895,-2 2,-2 1.104,0 1.999,0.895 1.999,2 z"
   inkscape:connector-curvature="0"
   style="stroke:#000000;stroke-width:0.32600001;stroke-linecap:round;stroke-linejoin:round" />
		<path
   id="path67051"
   d="m 927.331,1018.07 c 8.5,-1.5 21,-1.5 27,0 l 1.999,-12 -6.999,11 v -14 l -5.5,13.5 -3,-15 -3,15 -5.5,-14 v 14.5 l -7,-11 2,12 z"
   inkscape:connector-curvature="0"
   style="stroke:#000000;stroke-width:0.32600001;stroke-linejoin:round" />
		<path
   id="path67053"
   d="m 927.331,1018.07 c 0,2 1.5,2 2.5,4 1,1.5 1,1 0.5,3.5 -1.5,1 -1.5,2.5 -1.5,2.5 -1.5,1.5 0.5,2.5 0.5,2.5 6.5,1 16.5,1 23,0 0,0 1.5,-1 0,-2.5 0,0 0.5,-1.5 -1,-2.5 -0.5,-2.5 -0.5,-2 0.5,-3.5 1,-2 2.5,-2 2.5,-4 -8.499,-1.5 -18.499,-1.5 -27,0 z"
   inkscape:connector-curvature="0"
   style="stroke:#000000;stroke-width:0.32600001;stroke-linejoin:round" />
		<path
   id="path67055"
   d="m 929.831,1022.07 c 3.5,-1 18.5,-1 22,0"
   inkscape:connector-curvature="0"
   style="fill:none;stroke:#ffffff;stroke-width:0.32600001;stroke-linecap:round;stroke-linejoin:round" />
		<path
   id="path67057"
   d="m 930.331,1025.57 c 6,-1 15,-1 21,0"
   inkscape:connector-curvature="0"
   style="fill:none;stroke:#ffffff;stroke-width:0.32600001;stroke-linecap:round;stroke-linejoin:round" />
		<path
   id="path67059"
   d="m 928.832,1028.07 c 5,-1 18.5,-1 23.5,0"
   inkscape:connector-curvature="0"
   style="fill:none;stroke:#ffffff;stroke-width:0.32600001;stroke-linecap:round;stroke-linejoin:round" />
	</g>
</g><g
   id="g70004"
   transform="translate(-780.70465,642.2508)">
	<g
   id="g67079"
   transform="matrix(3.677456,0,0,3.6776632,-684.87287,-2670.1206)">
		<path
   id="path67081"
   d="m 541.391,848.41 v -5.625"
   inkscape:connector-curvature="0"
   style="fill:#ffffff;stroke:#ffffff;stroke-width:1.63150001;stroke-linecap:round" />
		<path
   id="path67083"
   d="m 541.391,859.948 c 0,0 4.775,-7.569 3.275,-10.569 0,0 -1.275,-2.431 -3.275,-2.431 -2,0 -3.275,2.569 -3.275,2.569 -1.5,2.999 3.275,10.431 3.275,10.431"
   inkscape:connector-curvature="0"
   style="fill:#ffffff;stroke:#ffffff;stroke-width:0.40790001" />
		<path
   id="path67085"
   d="m 530.734,869.841 c 5.5,3.5 15.157,3.431 20.657,-0.069 l -0.069,-6.313 c 0,0 7.352,-3.608 4.352,-9.607 -4,-6.5 -13.5,-3.5 -16,4 l 1.717,1.921 v -3.5 c -3.637,-6.127 -10.734,-8.44 -14.421,-2.833 -3,6 3.627,10 3.627,10 l 0.137,6.401 z"
   inkscape:connector-curvature="0"
   style="fill:#ffffff;stroke:#ffffff;stroke-width:0.40790001;stroke-linecap:round;stroke-linejoin:round" />
		<path
   id="path67087"
   d="m 538.891,844.785 h 5"
   inkscape:connector-curvature="0"
   style="fill:#ffffff;stroke:#ffffff;stroke-width:1.63150001;stroke-linecap:round" />
	</g>
	<g
   id="g67061"
   transform="matrix(3.067229,0,0,3.067558,-329.09607,-2142.8556)">
		<path
   id="path67063"
   d="m 533.135,844.656 v -5.625"
   inkscape:connector-curvature="0"
   style="fill:none;stroke:#000000;stroke-width:0.48899999;stroke-linecap:round" />
		<path
   id="path67065"
   d="m 533.135,858.031 c 0,0 4.5,-7.5 3,-10.5 0,0 -1,-2.5 -3,-2.5 -2,0 -3,2.5 -3,2.5 -1.5,3 3,10.5 3,10.5"
   inkscape:connector-curvature="0"
   style="stroke:#000000;stroke-width:0.48899999" />
		<path
   id="path67067"
   d="m 522.135,870.031 c 5.5,3.5 15.5,3.5 21,0 v -7 c 0,0 9,-4.5 6,-10.5 -4,-6.5 -13.5,-3.5 -16,4 v 3.5 -3.5 c -3.5,-7.5 -13,-10.5 -16,-4 -3,6 5,10 5,10 v 7.5 z"
   inkscape:connector-curvature="0"
   style="stroke:#000000;stroke-width:0.48899999;stroke-linecap:round;stroke-linejoin:round" />
		<path
   id="path67069"
   d="m 530.635,841.031 h 5"
   inkscape:connector-curvature="0"
   style="fill:none;stroke:#000000;stroke-width:0.48899999;stroke-linecap:round" />
		<path
   id="path67071"
   d="m 522.135,862.531 c 5.5,-2.5 15.5,-2.5 21,0.5"
   inkscape:connector-curvature="0"
   style="fill:none;stroke:#ffffff;stroke-width:0.48899999;stroke-linecap:round" />
		<path
   id="path67073"
   d="m 522.135,870.031 c 5.5,-2.5 15.5,-2.5 21,0"
   inkscape:connector-curvature="0"
   style="fill:none;stroke:#ffffff;stroke-width:0.48899999;stroke-linecap:round;stroke-linejoin:round" />
		<path
   id="path67075"
   d="m 522.135,866.531 c 5.5,-2 15.5,-2 21,0"
   inkscape:connector-curvature="0"
   style="fill:none;stroke:#ffffff;stroke-width:0.48899999;stroke-linecap:round;stroke-linejoin:round" />
		<path
   id="path67077"
   d="m 542.635,862.531 c 0,0 8.5,-4 6.026,-9.653 -3.879,-5.85 -13.026,-1.847 -15.526,4.653 l 0.012,2.097 -0.012,-2.097 c -2.5,-6.5 -12.593,-10.503 -15.503,-4.653 -2.497,5.653 4.848,9 4.848,9"
   inkscape:connector-curvature="0"
   style="fill:none;stroke:#ffffff;stroke-width:0.48899999;stroke-linecap:round;stroke-linejoin:round" />
	</g>
</g><g
   id="g80246"
   transform="translate(-146.3365,-1765.9774)">
	<path
   id="path80248"
   d="m 774.919,1851.994 c 29.278,-5.167 72.082,-3.021 92.749,2.146 0,0 10.279,-44.535 6.384,-50.369 -3.896,-5.834 -21.965,27.034 -21.965,27.034 l -3.409,-42.42 -16.167,39.813 c 0,0 -5.767,-35.353 -11.218,-35.132 -5.45,0.221 -10.586,36.016 -10.586,36.016 0,0 -8.621,-33.79 -15.661,-33.454 -7.167,0.336 -4.42,35.808 -4.42,35.808 0,0 -16.775,-31.037 -20.702,-25.898 -3.927,5.139 4.995,46.456 4.995,46.456 z"
   inkscape:connector-curvature="0"
   style="fill:#ffffff;stroke:#ffffff;stroke-width:1;stroke-linejoin:round" />
	<path
   id="path80250"
   d="m 773.782,1846.813 c 0,7.295 1.277,11.128 7.33,17.286 1.759,2.693 4.382,3.224 2.24,8.555 -5.669,3.647 -5.795,11.139 -5.795,11.139 -1.755,5.218 2.016,11.11 2.016,11.11 24.564,3.647 56.479,3.66 82.178,0.379 0,0 3.396,-4.502 2.146,-9.974 0,0 0.248,-8.375 -4.157,-12.149 -1.006,-6.72 1.084,-6.411 3.727,-10.115 4.032,-6.158 5.338,-7.295 5.338,-14.59 -32.124,-5.471 -62.9,-7.113 -95.023,-1.641 z"
   inkscape:connector-curvature="0"
   style="fill:#ffffff;stroke:#ffffff;stroke-width:1;stroke-linejoin:round" />
	<path
   id="path80252"
   d="m 882.54,1808.408 c 0,5.827 -4.724,10.551 -10.551,10.551 -5.827,0 -10.551,-4.724 -10.551,-10.551 0,-5.828 4.724,-10.552 10.551,-10.552 5.827,0 10.551,4.725 10.551,10.552 z"
   inkscape:connector-curvature="0"
   style="fill:#ffffff;stroke:#ffffff;stroke-width:0.18960001;stroke-linecap:round;stroke-linejoin:round" />
	<path
   id="path80254"
   d="m 781.234,1808.299 c 0,5.828 -4.724,10.552 -10.551,10.552 -5.826,0 -10.55,-4.724 -10.55,-10.552 0,-5.828 4.724,-10.552 10.55,-10.552 5.827,0 10.551,4.724 10.551,10.552 z"
   inkscape:connector-curvature="0"
   style="fill:#ffffff;stroke:#ffffff;stroke-width:0.18960001;stroke-linecap:round;stroke-linejoin:round" />
	<path
   id="path80256"
   d="m 776.975,1808.47 c 0,3.388 -2.747,6.135 -6.135,6.135 -3.388,0 -6.135,-2.747 -6.135,-6.135 0,-3.389 2.747,-6.135 6.135,-6.135 3.388,0 6.135,2.746 6.135,6.135 z"
   inkscape:connector-curvature="0"
   style="fill:#ffffff;stroke:#000000;stroke-width:1.63;stroke-linecap:round;stroke-linejoin:round" />
	<path
   id="path80258"
   d="m 831.868,1794.409 c 0,5.828 -4.724,10.552 -10.551,10.552 -5.826,0 -10.55,-4.724 -10.55,-10.552 0,-5.828 4.724,-10.552 10.55,-10.552 5.827,0 10.551,4.725 10.551,10.552 z"
   inkscape:connector-curvature="0"
   style="fill:#ffffff;stroke:#ffffff;stroke-width:0.18960001;stroke-linecap:round;stroke-linejoin:round" />
	<path
   id="path80260"
   d="m 827.584,1794.666 c 0,3.388 -2.746,6.135 -6.134,6.135 -3.389,0 -6.135,-2.747 -6.135,-6.135 0,-3.388 2.746,-6.135 6.135,-6.135 3.388,-10e-4 6.134,2.746 6.134,6.135 z"
   inkscape:connector-curvature="0"
   style="fill:#ffffff;stroke:#000000;stroke-width:1.63;stroke-linecap:round;stroke-linejoin:round" />
	<path
   id="path80262"
   d="m 878.193,1808.47 c 0,3.388 -2.746,6.135 -6.134,6.135 -3.389,0 -6.135,-2.747 -6.135,-6.135 0,-3.389 2.746,-6.135 6.135,-6.135 3.388,-10e-4 6.134,2.746 6.134,6.135 z"
   inkscape:connector-curvature="0"
   style="fill:#ffffff;stroke:#000000;stroke-width:1.63;stroke-linecap:round;stroke-linejoin:round" />
	<path
   id="path80264"
   d="m 805.856,1797.692 c 0,5.827 -4.724,10.551 -10.55,10.551 -5.827,0 -10.551,-4.724 -10.551,-10.551 0,-5.828 4.724,-10.552 10.551,-10.552 5.827,10e-4 10.55,4.725 10.55,10.552 z"
   inkscape:connector-curvature="0"
   style="fill:#ffffff;stroke:#ffffff;stroke-width:0.18960001;stroke-linecap:round;stroke-linejoin:round" />
	<path
   id="path80266"
   d="m 801.512,1797.733 c 0,3.389 -2.746,6.135 -6.134,6.135 -3.389,0 -6.135,-2.747 -6.135,-6.135 0,-3.388 2.746,-6.135 6.135,-6.135 3.388,0 6.134,2.747 6.134,6.135 z"
   inkscape:connector-curvature="0"
   style="fill:#ffffff;stroke:#000000;stroke-width:1.63;stroke-linecap:round;stroke-linejoin:round" />
	<path
   id="path80268"
   d="m 858.132,1799.208 c 0,5.827 -4.724,10.551 -10.55,10.551 -5.827,0 -10.551,-4.724 -10.551,-10.551 0,-5.828 4.724,-10.552 10.551,-10.552 5.826,0 10.55,4.724 10.55,10.552 z"
   inkscape:connector-curvature="0"
   style="fill:#ffffff;stroke:#ffffff;stroke-width:0.18960001;stroke-linecap:round;stroke-linejoin:round" />
	<path
   id="path80270"
   d="m 853.656,1799.267 c 0,3.389 -2.747,6.135 -6.135,6.135 -3.388,0 -6.135,-2.747 -6.135,-6.135 0,-3.388 2.747,-6.135 6.135,-6.135 3.388,0 6.135,2.746 6.135,6.135 z"
   inkscape:connector-curvature="0"
   style="fill:#ffffff;stroke:#000000;stroke-width:1.63;stroke-linecap:round;stroke-linejoin:round" />
	<path
   id="path80272"
   d="m 780.042,1851.416 c 26.072,-4.602 64.412,-4.602 82.815,0 l 6.135,-36.811 -21.471,33.743 v -42.946 l -16.87,41.412 -9.201,-46.013 -9.202,46.013 -16.869,-42.946 v 44.479 l -21.471,-33.743 6.134,36.812 z"
   inkscape:connector-curvature="0"
   style="fill:#ffffff;stroke:#000000;stroke-width:5;stroke-linejoin:round" />
	<path
   id="path80274"
   d="m 780.042,1851.416 c 0,6.135 4.602,6.135 7.668,12.27 3.067,4.602 3.067,3.067 1.534,10.736 -4.601,3.067 -4.601,7.669 -4.601,7.669 -4.602,4.602 1.533,7.669 1.533,7.669 19.938,3.067 50.609,3.067 70.546,0 0,0 4.602,-3.067 0,-7.669 0,0 1.534,-4.602 -3.066,-7.669 -1.534,-7.669 -1.534,-6.135 1.533,-10.736 3.067,-6.135 7.668,-6.135 7.668,-12.27 -26.071,-4.602 -56.743,-4.602 -82.815,0 z"
   inkscape:connector-curvature="0"
   style="fill:#ffffff;stroke:#000000;stroke-width:5;stroke-linejoin:round" />
	<path
   id="path80276"
   d="m 787.71,1863.686 c 10.735,-3.067 56.744,-3.067 67.479,0"
   inkscape:connector-curvature="0"
   style="fill:none;stroke:#000000;stroke-width:5;stroke-linecap:round;stroke-linejoin:round" />
	<path
   id="path80278"
   d="m 789.244,1874.422 c 18.403,-3.067 46.009,-3.067 64.412,0"
   inkscape:connector-curvature="0"
   style="fill:none;stroke:#000000;stroke-width:5;stroke-linecap:round;stroke-linejoin:round" />
	<path
   id="path80280"
   d="m 784.643,1882.091 c 15.336,-3.067 56.743,-3.067 72.079,0"
   inkscape:connector-curvature="0"
   style="fill:none;stroke:#000000;stroke-width:5;stroke-linecap:round;stroke-linejoin:round" />
</g><g
   id="g82263"
   transform="translate(61.811671,-1749.51)">
	<path
   id="path80321"
   d="m 463.129,1790.062 v -16.385"
   inkscape:connector-curvature="0"
   style="fill:none;stroke:#ffffff;stroke-width:8;stroke-linecap:round" />
	<path
   id="path80323"
   d="m 455.334,1779.68 h 15.337"
   inkscape:connector-curvature="0"
   style="fill:none;stroke:#ffffff;stroke-width:8;stroke-linecap:round" />
	<path
   id="path80300"
   d="m 463.282,1790.951 v -17.255"
   inkscape:connector-curvature="0"
   style="fill:none;stroke:#000000;stroke-width:5;stroke-linecap:round" />
	<path
   id="path80302"
   d="m 463.282,1831.98 c 0,0 13.803,-23.007 9.201,-32.21 0,0 -3.066,-7.668 -9.201,-7.668 -6.135,0 -9.202,7.668 -9.202,7.668 -4.601,9.203 9.202,32.21 9.202,32.21"
   inkscape:connector-curvature="0"
   style="fill:#ffffff;stroke:#000000;stroke-width:5" />
	<path
   id="path80304"
   d="m 429.543,1868.791 c 16.869,10.736 47.542,10.736 64.411,0 v -21.473 c 0,0 27.605,-13.804 18.403,-32.209 -12.269,-19.939 -41.407,-10.736 -49.075,12.271 v 10.736 -10.736 c -10.735,-23.007 -39.874,-32.209 -49.076,-12.271 -9.201,18.406 15.337,30.676 15.337,30.676 v 23.006 z"
   inkscape:connector-curvature="0"
   style="fill:#ffffff;stroke:#000000;stroke-width:5;stroke-linecap:round;stroke-linejoin:round" />
	<path
   id="path80306"
   d="M 455.614,1779.831 H 470.95"
   inkscape:connector-curvature="0"
   style="fill:none;stroke:#000000;stroke-width:5;stroke-linecap:round" />
	<path
   id="path80308"
   d="m 429.543,1845.784 c 16.869,-7.669 47.542,-7.669 64.411,1.534"
   inkscape:connector-curvature="0"
   style="fill:none;stroke:#000000;stroke-width:5;stroke-linecap:round" />
	<path
   id="path80310"
   d="m 429.543,1868.791 c 16.869,-7.669 47.542,-7.669 64.411,0"
   inkscape:connector-curvature="0"
   style="fill:none;stroke:#000000;stroke-width:5;stroke-linecap:round;stroke-linejoin:round" />
	<path
   id="path80312"
   d="m 429.543,1858.054 c 16.869,-6.135 47.542,-6.135 64.411,0"
   inkscape:connector-curvature="0"
   style="fill:none;stroke:#000000;stroke-width:5;stroke-linecap:round;stroke-linejoin:round" />
</g></svg>