<?xml version="1.0" standalone="no"?>
<!DOCTYPE svg PUBLIC "-//W3C//DTD SVG 20010904//EN"
 "http://www.w3.org/TR/2001/REC-SVG-20010904/DTD/svg10.dtd">
<svg version="1.0" xmlns="http://www.w3.org/2000/svg"
 width="180.000000pt" height="180.000000pt" viewBox="0 0 180.000000 180.000000"
 preserveAspectRatio="xMidYMid meet">
<metadata>
Created by potrace 1.11, written by Peter Selinger 2001-2013
</metadata>
<g transform="translate(0.000000,180.000000) scale(0.100000,-0.100000)"
fill="#000000" stroke="none">
<path d="M821 1746 c-11 -13 -10 -25 5 -65 16 -47 17 -57 2 -161 -8 -61 -18
-114 -22 -117 -3 -4 -61 -13 -129 -20 -134 -14 -147 -17 -147 -33 0 -26 84
-50 174 -50 l88 0 -7 -47 c-3 -27 -13 -77 -21 -113 l-15 -66 -204 -33 -204
-34 -34 22 c-19 11 -44 21 -57 21 -19 0 -22 -4 -17 -32 2 -18 15 -60 27 -93
22 -59 23 -63 13 -304 -7 -148 -7 -257 -2 -277 9 -30 59 -84 80 -84 4 0 16 14
25 32 15 28 15 56 6 267 -5 130 -7 270 -5 312 l5 77 77 16 c85 18 437 66 482
66 22 0 29 -5 29 -20 0 -26 -82 -201 -101 -216 -8 -6 -79 -19 -159 -28 -80
-10 -149 -21 -153 -25 -20 -19 30 -36 122 -41 l96 -5 9 -46 c5 -26 7 -53 4
-61 -4 -10 -47 -20 -142 -32 -137 -19 -162 -30 -113 -54 43 -21 73 -21 162 -3
49 11 93 17 97 14 5 -2 8 -37 8 -76 0 -81 16 -201 29 -225 7 -13 11 -11 26 12
13 20 21 64 29 164 l11 137 30 6 c17 4 92 7 167 8 153 1 169 8 121 52 -42 37
-93 43 -199 25 -121 -22 -118 -22 -111 18 3 20 0 45 -9 61 -8 16 -13 29 -12
30 2 2 63 10 137 19 74 8 139 21 145 27 8 7 4 16 -13 30 -25 21 -100 25 -179
10 l-43 -9 21 23 c12 13 53 50 91 82 38 32 69 65 69 75 0 9 -14 25 -31 36
l-31 19 49 7 c26 3 113 9 193 13 131 5 147 4 160 -12 20 -25 24 -116 11 -311
-14 -221 -35 -336 -69 -375 l-25 -31 -85 8 c-71 5 -83 4 -76 -7 22 -38 201
-219 216 -219 38 0 97 124 122 260 9 47 23 182 32 300 16 228 32 333 59 373
15 24 15 26 -11 46 -14 11 -50 32 -80 47 l-54 26 -112 -16 c-139 -20 -530 -57
-536 -51 -5 5 46 206 57 223 3 5 68 19 144 31 76 13 161 29 188 37 42 13 50
19 47 37 -7 52 -109 61 -257 22 -52 -14 -96 -23 -98 -22 -2 2 15 54 37 116 30
84 38 117 30 130 -11 21 -97 81 -116 81 -7 0 -19 2 -27 5 -7 3 -19 -1 -26 -9z"/>
<path d="M640 965 c0 -39 87 -155 116 -155 8 0 19 12 24 26 16 42 -31 110 -93
133 -38 15 -47 14 -47 -4z"/>
</g>
</svg>
