<svg xmlns="http://www.w3.org/2000/svg" viewBox="0 0 480.356 480.356" width="640.475" height="640.475" fill="#666"><path d="M469.725 418.417L344.405 293.1c57.936-86.275 34.963-203.18-51.312-261.116S89.913-3 31.977 83.286-2.986 286.466 83.3 344.402c63.446 42.605 146.358 42.605 209.804 0l125.32 125.328c14.17 14.17 37.143 14.17 51.312 0s14.17-37.143 0-51.313zm-281.368-58.064c-94.95-.106-171.894-77.05-172-172 0-94.993 77.007-172 172-172s172 77.007 172 172-77.007 172-172 172zM458.42 458.4a20.28 20.28 0 0 1-14.352 5.944 20.15 20.15 0 0 1-14.344-5.936L307.67 336.353l28.688-28.688L458.413 429.73c7.922 7.918 7.926 20.76.008 28.68zm-265.847-426l-.424 16a139.67 139.67 0 0 1 105.896 52.936l12.528-9.952a155.68 155.68 0 0 0-118-58.984zm129.672 75.823l-13.72 8.232a140.3 140.3 0 0 1 8 15.368l14.592-6.464a157.2 157.2 0 0 0-8.872-17.136z"/></svg>