<svg xmlns="http://www.w3.org/2000/svg" xmlns:xlink="http://www.w3.org/1999/xlink" viewBox="0 0 176 238.64"><use xlink:href="#A"/><use xlink:href="#B"/><use xlink:href="#C"/><use xlink:href="#E"/><use xlink:href="#D"/><g fill="#b3b3b3"><use xlink:href="#A"/><use xlink:href="#B"/><use xlink:href="#C"/><use xlink:href="#E"/><use xlink:href="#D"/></g><g fill="#234d82"><use xlink:href="#A"/><use xlink:href="#B"/><use xlink:href="#C"/><use xlink:href="#E"/><use xlink:href="#D"/></g><g fill="#666"><use xlink:href="#A"/><use xlink:href="#B"/><use xlink:href="#C"/><use xlink:href="#E"/><use xlink:href="#D"/></g><defs><path id="A" d="M.67 137.4a119.61 119.61 0 0 1 19.77-1.34c9 0 15.45 1.72 19.77 5.18a18.9 18.9 0 0 1 6.91 15c0 6.33-2.1 11.7-6 15.36-5 4.7-12.38 6.8-21 6.8a37.17 37.17 0 0 1-5-.29v23.13H.67zm14.5 29.37a22.34 22.34 0 0 0 4.9.38c7.77 0 12.57-3.93 12.57-10.56 0-6-4.13-9.5-11.42-9.5a24.78 24.78 0 0 0-6.05.58z"/><path id="B" d="M110.46 198.25a72.57 72.57 0 0 1-21.59 3.64c-11.8 0-20.35-3-26.3-8.73-5.95-5.57-9.2-14-9.12-23.5.1-21.5 15.74-33.8 37-33.8 8.36 0 14.78 1.64 17.95 3.17l-3.07 11.7c-3.55-1.54-8-2.78-15.07-2.78-12.2 0-21.4 6.9-21.4 20.92 0 13.34 8.35 21.2 20.35 21.2 3.36 0 6-.4 7.2-1v-13.5h-10v-11.42h24.1z"/><path id="C" d="M121.88 201.22v-64.68H139l13.43 23.7A188.27 188.27 0 0 1 163 182.41h.3a239.9 239.9 0 0 1-1.25-27v-18.9h13.44v64.68h-15.4l-13.82-24.95A240.9 240.9 0 0 1 135 153.43l-.3.1c.4 8.55.58 17.66.58 28.22v19.48z"/><path id="D" d="M39.08 68.56c0-1.92 2.28-3.48 5.1-3.48h89.1c2.8 0 5.1 1.56 5.1 3.48l-45.82 56.52a7 7 0 0 1-7.64 0c-3.8-2.6-45.82-56.52-45.82-56.52z"/><path id="E" d="M0 217.76h176v20.88H0zM61.68 0h52.97v79.05H61.68z"/></defs></svg>