<svg xmlns="http://www.w3.org/2000/svg" xmlns:xlink="http://www.w3.org/1999/xlink" viewBox="0 0 242 242.11"><use xlink:href="#A"/><path d="M0 .1h121v121H0z"/><use xlink:href="#B"/><use xlink:href="#D"/><use xlink:href="#E"/><use xlink:href="#C"/><path d="M0 194.16h86.92v28.2H0z"/><path d="M0 151.25h30.3v71.1H0z"/><g fill="#234d82"><use xlink:href="#A"/><path d="M0 .1h121v121H0z"/><use xlink:href="#B"/><use xlink:href="#D"/><use xlink:href="#E"/><use xlink:href="#C"/><path d="M0 194.16h86.92v28.2H0z"/><path d="M0 151.25h30.3v71.1H0z"/></g><g fill="#666"><use xlink:href="#A"/><path d="M0 .1h121v121H0z"/><use xlink:href="#B"/><use xlink:href="#D"/><use xlink:href="#E"/><use xlink:href="#C"/><path d="M0 194.16h86.92v28.2H0z"/><path d="M0 151.25h30.3v71.1H0z"/></g><defs><path id="A" d="M180.12 0c1.44 0 2.62 1.56 2.62 3.5v61c0 1.93-1.18 3.5-2.62 3.5l-42.6-31.37a4.45 4.45 0 0 1 0-5.23C139.5 28.77 180.12 0 180.12 0z"/><path id="B" d="M121 121.1v121h121v-121zm104.87 104.87h-88.74v-88.74h88.74z"/><path id="C" d="M61.88 242.1c-1.44 0-2.62-1.56-2.62-3.5v-61c0-1.93 1.18-3.5 2.62-3.5l42.6 31.38a4.46 4.46 0 0 1 0 5.23c-1.97 2.6-42.6 31.37-42.6 31.37z"/><path id="D" d="M155.08 19.75H242v28.2h-86.92z"/><path id="E" d="M211.7 19.75H242v71.1h-30.3z"/></defs></svg>